<?xml version="1.0" encoding="UTF-8"?>
<svg id="Layer_2" data-name="Layer 2" xmlns="http://www.w3.org/2000/svg" viewBox="0 0 1417.32 1417.32">
  <defs>
    <style>
      .cls-1 {
        fill: #13161e;
      }

      .cls-2 {
        fill: #fff;
      }
    </style>
  </defs>
  <g id="Layer_2-2" data-name="Layer 2">
    <rect class="cls-1" width="1417.32" height="1417.32"/>
  </g>
  <g id="Layer_1-2" data-name="Layer 1">
    <g id="uuid-b3a1c437-1687-4551-bf5a-a781e708f654" data-name="Layer 2-2">
      <g id="uuid-0b690972-0d06-4ff3-8dd2-9ea9129234dd">
        <g id="uuid-b8a5611d-2982-4319-ba60-bf22edfb8f79">
          <g id="uuid-0ecf94f4-678b-4b56-93f8-a5e10867426e" data-name="Layer 1-2">
            <g id="uuid-b883b752-d546-4167-aee1-166794b51e18">
              <path class="cls-2" d="M998.89,547.06c92.43,0,167.28,74.91,167.28,167.28s-74.91,167.28-167.28,167.28-167.28-74.91-167.28-167.28,74.91-167.28,167.28-167.28ZM1033.94,605.17c-2.56-1.26-5.13,0-5.75,2.56-.63.63-.63,1.26-.63,2.56v8.89l.1,1.1c.52,2.14,1.88,4.03,3.71,5.28,49.69,17.78,75.22,72.97,56.7,121.83-9.57,26.68-30.6,46.97-56.7,56.49-2.56,1.26-3.82,3.19-3.82,6.33v9.83c.26,2.04,1.78,3.77,3.82,4.13.63,0,1.94,0,2.56-.63,60.05-18.78,93.53-82.65,74.8-142.7,0-.26-.16-.47-.21-.73-11.46-36.2-39.49-63.45-74.54-74.91h-.05v-.05ZM966.41,604.54c-.63,0-1.94,0-2.56.63-60.05,18.78-93.53,82.65-74.8,142.7.05.26.16.47.21.73,11.46,35.57,38.87,62.82,74.54,74.28,2.56,1.26,5.13,0,5.75-2.56.63-.63.63-1.26.63-2.56v-8.89l-.1-.84c-.42-1.78-2.09-3.77-3.71-4.86-49.69-17.78-75.22-72.97-56.7-121.83,9.57-26.68,30.6-46.97,56.7-56.49,2.56-1.26,3.82-3.19,3.82-6.33v-9.83c-.26-2.04-1.78-3.77-3.82-4.13h.05ZM1003.34,637.55h-9.57l-.94.1c-2.09.42-3.61,2.2-4.18,5.02v14.59l-2.14.31c-17.84,3.19-29.03,15.48-29.03,30.76,0,20.92,12.71,29.19,39.49,32.38,17.84,3.19,23.59,7.01,23.59,17.16s-8.94,17.1-21.03,17.1c-16.58,0-22.28-6.96-24.22-16.48-.63-2.51-2.56-3.82-4.45-3.82h-11.66c-2.14.42-3.66,2.3-3.61,4.45v.63l.37,1.88c3.03,14.91,13.23,25.53,33.42,28.61v15.22l.1.94c.42,2.09,2.25,3.61,5.02,4.13h9.57l.94-.1c2.09-.42,3.61-2.2,4.18-4.97v-15.22l2.14-.42c17.89-3.77,29.71-16.74,29.71-33.22,0-22.23-13.39-29.82-40.17-33.01-19.14-2.56-22.96-7.64-22.96-16.48s6.38-14.59,19.09-14.59c11.46,0,17.84,3.82,21.03,13.34.68,1.88,2.46,3.14,4.45,3.19h11.04c2.14-.42,3.71-2.3,3.66-4.45v-.63l-.37-1.83c-3.24-13.34-14.65-23.07-28.3-24.22v-15.22l-.1-.94c-.42-2.09-2.25-3.61-5.02-4.18h0l-.05-.05Z"/>
              <path class="cls-2" d="M792.43,689.44l-251.81-145.36c-12.55-7.22-28.19,1.83-28.19,16.27v290.73c0,14.49,15.69,23.54,28.19,16.27l251.81-145.36c12.55-7.22,12.55-25.32,0-32.59h0v.05Z"/>
              <path class="cls-2" d="M848.82,518.49c-.94-1.1-2.46-2.3-3.56-3.3-26.68-24.38-113.04-94.73-231.05-86.36-132.97,9.42-275.77,116.65-278.86,268.45-3.19,157.45,145.78,273.62,286.18,280.58,136.37,6.7,229.48-91.38,249.41-114.08,1.46-1.67,3.87-1.94,5.7-.68,8.16,5.6,17.58,11.4,28.3,16.95,13.7,7.11,26.73,12.24,38.24,16.06,2.77.94,3.87,4.34,2.2,6.75-33.37,46.4-78.31,85-131.03,112.25-54.56,28.25-117.48,44.31-184.44,44.31-104.56,0-199.29-39.23-267.82-102.73-68.52-63.45-110.95-151.17-110.95-247.99s42.32-184.6,110.89-248.05c68.58-63.45,163.2-102.73,267.82-102.73,57.7,0,112.36,11.93,161.27,33.32,46.29,20.19,87.46,48.86,121.2,83.8"/>
            </g>
            <path class="cls-2" d="M939.99,540.05l-13.13-109.95c-.52-4.39-5.6-6.59-9.15-3.92l-129.1,96.61c-3.56,2.67-2.88,8.16,1.2,9.89l93.63,40.12c.63.26,1.36.16,1.88-.31,8.26-7.22,19.41-15.38,33.58-22.34,7.01-3.45,13.7-6.12,19.88-8.16.84-.26,1.36-1.1,1.26-1.94h-.05Z"/>
          </g>
        </g>
      </g>
    </g>
  </g>
</svg>