<?xml version="1.0" encoding="UTF-8"?>
<svg id="Layer_2" data-name="Layer 2" xmlns="http://www.w3.org/2000/svg" viewBox="0 0 175.43 135.11">
  <defs>
    <style>
      .cls-1 {
        fill: #020202;
      }

      .cls-1, .cls-2 {
        stroke: #000;
        stroke-miterlimit: 10;
      }
    </style>
  </defs>
  <g id="Layer_2-2" data-name="Layer 2">
    <g id="uuid-0b690972-0d06-4ff3-8dd2-9ea9129234dd" data-name="Layer 2-2">
      <g id="uuid-b8a5611d-2982-4319-ba60-bf22edfb8f79">
        <g id="Layer_1-2" data-name="Layer 1-2">
          <g id="uuid-b883b752-d546-4167-aee1-166794b51e18">
            <path d="M143.45,36.66c17.67,0,31.98,14.32,31.98,31.98s-14.32,31.98-31.98,31.98-31.98-14.32-31.98-31.98,14.32-31.98,31.98-31.98ZM150.15,47.77c-.49-.24-.98,0-1.1.49-.12.12-.12.24-.12.49v1.7l.02.21c.1.41.36.77.71,1.01,9.5,3.4,14.38,13.95,10.84,23.29-1.83,5.1-5.85,8.98-10.84,10.8-.49.24-.73.61-.73,1.21v1.88c.05.39.34.72.73.79.12,0,.37,0,.49-.12,11.48-3.59,17.88-15.8,14.3-27.28,0-.05-.03-.09-.04-.14-2.19-6.92-7.55-12.13-14.25-14.32h-.01ZM137.24,47.65c-.12,0-.37,0-.49.12-11.48,3.59-17.88,15.8-14.3,27.28.01.05.03.09.04.14,2.19,6.8,7.43,12.01,14.25,14.2.49.24.98,0,1.1-.49.12-.12.12-.24.12-.49v-1.7l-.02-.16c-.08-.34-.4-.72-.71-.93-9.5-3.4-14.38-13.95-10.84-23.29,1.83-5.1,5.85-8.98,10.84-10.8.49-.24.73-.61.73-1.21v-1.88c-.05-.39-.34-.72-.73-.79h.01ZM144.3,53.96h-1.83l-.18.02c-.4.08-.69.42-.8.96v2.79l-.41.06c-3.41.61-5.55,2.96-5.55,5.88,0,4,2.43,5.58,7.55,6.19,3.41.61,4.51,1.34,4.51,3.28s-1.71,3.27-4.02,3.27c-3.17,0-4.26-1.33-4.63-3.15-.12-.48-.49-.73-.85-.73h-2.23c-.41.08-.7.44-.69.85v.12l.07.36c.58,2.85,2.53,4.88,6.39,5.47v2.91l.02.18c.08.4.43.69.96.79h1.83l.18-.02c.4-.08.69-.42.8-.95v-2.91l.41-.08c3.42-.72,5.68-3.2,5.68-6.35,0-4.25-2.56-5.7-7.68-6.31-3.66-.49-4.39-1.46-4.39-3.15s1.22-2.79,3.65-2.79c2.19,0,3.41.73,4.02,2.55.13.36.47.6.85.61h2.11c.41-.08.71-.44.7-.85v-.12l-.07-.35c-.62-2.55-2.8-4.41-5.41-4.63v-2.91l-.02-.18c-.08-.4-.43-.69-.96-.8h0Z"/>
            <path class="cls-2" d="M103.98,63.88l-48.14-27.79c-2.4-1.38-5.39.35-5.39,3.11v55.58c0,2.77,3,4.5,5.39,3.11l48.14-27.79c2.4-1.38,2.4-4.84,0-6.23h0Z"/>
            <path class="cls-1" d="M114.76,31.2c-.18-.21-.47-.44-.68-.63-5.1-4.66-21.61-18.11-44.17-16.51-25.42,1.8-52.72,22.3-53.31,51.32-.61,30.1,27.87,52.31,54.71,53.64,26.07,1.28,43.87-17.47,47.68-21.81.28-.32.74-.37,1.09-.13,1.56,1.07,3.36,2.18,5.41,3.24,2.62,1.36,5.11,2.34,7.31,3.07.53.18.74.83.42,1.29-6.38,8.87-14.97,16.25-25.05,21.46-10.43,5.4-22.46,8.47-35.26,8.47-19.99,0-38.1-7.5-51.2-19.64C8.61,102.84.5,86.07.5,67.56S8.59,32.27,21.7,20.14C34.81,8.01,52.9.5,72.9.5c11.03,0,21.48,2.28,30.83,6.37,8.85,3.86,16.72,9.34,23.17,16.02"/>
          </g>
          <path class="cls-2" d="M132.19,35.32l-2.51-21.02c-.1-.84-1.07-1.26-1.75-.75l-24.68,18.47c-.68.51-.55,1.56.23,1.89l17.9,7.67c.12.05.26.03.36-.06,1.58-1.38,3.71-2.94,6.42-4.27,1.34-.66,2.62-1.17,3.8-1.56.16-.05.26-.21.24-.37h-.01Z"/>
        </g>
      </g>
    </g>
  </g>
</svg>