<?xml version="1.0" encoding="UTF-8"?>
<svg id="Layer_2" data-name="Layer 2" xmlns="http://www.w3.org/2000/svg" viewBox="0 0 914.73 915.98">
  <defs>
    <style>
      .cls-1 {
        fill: #fff;
      }
    </style>
  </defs>
  <g id="body-content">
    <g>
      <path class="cls-1" d="M0,915.98V0h914.73v915.98H0ZM221.68,47.32H47.32v174.35h174.35V47.32ZM296.42,59.78c0-6.89-5.58-12.47-12.47-12.47s-12.47,5.58-12.47,12.47,5.58,12.47,12.47,12.47,12.47-5.58,12.47-12.47ZM371.09,110l-.08-26.6c-.02-5.59-5.55-10.97-11.03-11.03l-13.72-.17-.1-13.09c-.05-6.62-5.93-11.64-12.11-11.81s-12.59,4.65-12.59,11.26l-.02,27.42c0,5.59,5.54,10.98,11.02,11.04l13.78.16-.02,12.49c0,6.84,5.63,12.26,12.18,12.42s12.73-4.94,12.71-12.08ZM296.6,210.73c.04,6.92,7.27,11.38,13.05,10.96,6.22-.45,11.27-5.36,11.67-11.82l-.02-38.01h24.92s0,88.35,0,88.35c.79,6.72,6.38,11.47,12.76,11.31s11.8-5.13,12.15-11.88v-87.77s24.91,0,24.91,0v38.59c.82,6.61,6.32,11.44,12.8,11.26,5.98-.17,12.07-5.15,12.08-11.87l.03-62.88,38-.06c6.9-.01,12-6.43,11.85-12.68-.16-6.58-5.57-12.18-12.44-12.18h-12.51s0-24.88,0-24.88l13.78-.16c5.46-.06,11.01-5.46,11.02-11.04l.06-26.86c.01-6.83-6.29-11.94-12.69-11.82s-12.05,5.2-12.1,11.81l-.09,13.12-38.61.12c-5.49.02-11.05,5.58-11.07,11.07l-.12,38.62-13.67.14c-5.96.06-10.5,5.49-11.23,11.02v13.77s-49.8,0-49.8,0l-.11-38.58c-.02-6.02-5.57-10.45-11.08-11.25h-38.63s0-12.52,0-12.52c0-6.83-5.6-12.25-12.2-12.4-6.23-.14-12.69,4.88-12.69,11.9v125.69c0,7.01,6.4,12.03,12.72,11.91s12.12-5.19,12.13-11.83l.06-38.02h24.88s.2,38.87.2,38.87ZM595.25,196.78l.11,13.13c.06,6.8,6.29,11.97,12.68,11.81s12.05-5.2,12.1-11.82l.1-13.09,13.75-.17c5.38-.07,11.02-5.42,11.02-11.07v-52.33c0-5.52-5.59-11.05-11.08-11.07l-38.63-.12v-14.31c-1.1-5.16-5.4-10.47-11.25-10.49l-38.57-.11v-24.9s11.89,0,11.89,0c7.32.33,13.22-5.75,13.06-12.73s-5.93-12.31-13.08-12.26l-25.61.19c-5.57.04-10.98,5.58-11.04,11.01l-.16,13.79h-12.48c-6.86-.02-12.26,5.61-12.43,12.17s4.99,12.61,11.83,12.67l13.11.11c.04,4.84-.11,9.31.22,14.25.35,5.21,5.6,10.5,10.98,10.52l38.63.11v13.68c.73,5.93,5.25,10.49,11.23,11.22h38.58s0,24.91,0,24.91l-38.01-.02c-6.88.41-12,6.21-11.84,12.78s5.58,12.15,12.43,12.15h12.48ZM620.22,59.78c0-6.89-5.58-12.47-12.47-12.47s-12.47,5.58-12.47,12.47,5.58,12.47,12.47,12.47,12.47-5.58,12.47-12.47ZM670.03,59.78c0-6.89-5.58-12.47-12.47-12.47s-12.47,5.58-12.47,12.47,5.58,12.47,12.47,12.47,12.47-5.58,12.47-12.47ZM869.28,47.32h-174.35v174.35h174.35V47.32ZM495.68,109.59c0-6.89-5.58-12.47-12.47-12.47s-12.47,5.58-12.47,12.47,5.58,12.47,12.47,12.47,12.47-5.58,12.47-12.47ZM670.03,109.59c0-6.89-5.58-12.47-12.47-12.47s-12.47,5.58-12.47,12.47,5.58,12.47,12.47,12.47,12.47-5.58,12.47-12.47ZM483.41,171.9l26-.16c5.5-.03,11.03-5.55,11.04-11.04l.06-26.88c.02-6.82-6.29-11.94-12.69-11.81s-12.05,5.2-12.1,11.81l-.1,13.09-13.09.11c-6.84.06-12,6.35-11.83,12.66s5.53,12.26,12.7,12.22ZM570.4,159.41c0-6.89-5.58-12.47-12.47-12.47s-12.47,5.58-12.47,12.47,5.58,12.47,12.47,12.47,12.47-5.58,12.47-12.47ZM445.81,246.64l.11,13.08c.06,6.79,6.28,11.98,12.68,11.81,6.07-.16,12.12-5.16,12.12-11.85v-51.09c0-6.89-6.36-11.96-12.7-11.84s-12.05,5.21-12.1,11.81l-.1,13.08-13.09.11c-6.83.06-11.98,6.29-11.83,12.67s5.2,12.04,11.83,12.1l13.08.12ZM520.59,209.22c0-6.89-5.58-12.47-12.47-12.47s-12.47,5.58-12.47,12.47,5.58,12.47,12.47,12.47,12.47-5.58,12.47-12.47ZM532.61,271.46l26.62-.09c5.42-.02,11.05-5.49,11.05-11.07l.05-51.72c0-6.88-6.33-11.96-12.7-11.84s-12.11,5.19-12.12,11.83l-.06,38.01h-12.5c-6.86,0-12.27,5.62-12.43,12.17-.16,6.34,4.95,12.73,12.09,12.71ZM570.42,396.03h49.78s-.01,13.14-.01,13.14c.41,6.81,6.19,11.97,12.76,11.82s11.8-5.2,12.18-11.82l-.02-13.13h24.9s.11,38.58.11,38.58c.02,5.99,5.65,10.49,11.02,11.25h13.79s.11,38.63.11,38.63c.02,5.55,5.61,11.05,11.04,11.05h27.51c5.51,0,11.04-5.52,11.04-11.03v-27.49c0-5.58-5.53-10.96-11.03-11.03l-13.76-.18v-99.54s13.76-.17,13.76-.17c5.54-.07,10.96-5.48,11.03-11.02l.16-13.72,13.09-.11c6.83-.06,11.98-6.28,11.83-12.67-.14-6.12-5.19-12.03-11.84-12.09l-13.11-.11v-24.87s24.91,0,24.91,0v14.33c1.13,5.1,5.37,10.5,11.27,10.51l63.43.08.16,13.68c.08,6.61,6.46,11.41,12.62,11.26,5.76-.14,12.02-4.85,12.02-11.26v-27.42c.01-5.6-5.51-10.97-11.02-11.04l-13.74-.17c-.04-4.88.13-9.3-.23-14.28-.37-5.12-5.49-10.53-11.06-10.53h-102c-5.78,0-11.07,5.73-11.13,11.03l-.17,13.81h-24.85c-.04-4.9.09-9.38-.22-14.27-.34-5.37-5.63-10.44-10.95-10.51l-13.75-.17-.13-38.55c-.02-6.65-6.67-11.39-12.6-11.27s-12.06,5.22-12.11,11.81l-.11,13.13h-12.48c-6.86-.01-12.26,5.61-12.43,12.17-.16,6.32,4.98,12.61,11.83,12.67l13.09.11.16,13.72c.06,5.54,5.49,10.96,11.02,11.02l13.77.16-.02,13.66c.75,5.93,5.27,10.49,11.25,11.22h38.58s0,24.9,0,24.9h-49.78s-.16-13.76-.16-13.76c-.06-5.55-5.47-10.94-11.04-11.01l-13.73-.17-.15-13.65c-.07-6.62-6.51-11.39-12.62-11.26s-12.04,5.21-12.09,11.81l-.1,13.11-37.97.07c-6.87.01-11.99,6.37-11.85,12.69s5.2,12.05,11.82,12.11l13.13.11v24.83s-13.76.16-13.76.16c-5.54.07-10.96,5.48-11.02,11.02l-.16,13.73-13.73.16c-5.54.06-10.96,5.48-11.03,11.02l-.15,13.75-63.46.09c-5.71,0-11.04,5.7-11.1,11.03l-.16,13.77-13.74.16c-5.47.06-11.01,5.46-11.02,11.04l-.06,26.86c-.01,6.82,6.3,11.97,12.69,11.82s12.05-5.2,12.1-11.82l.1-13.09,13.72-.16c5.54-.07,10.96-5.48,11.03-11.02l.16-13.76h49.77s0,12.53,0,12.53c0,6.84,5.61,12.26,12.19,12.42s12.66-4.96,12.68-11.84l.08-38.02ZM171.82,321.32l.11,13.13c.06,6.8,6.29,11.97,12.68,11.81s12.05-5.2,12.1-11.82l.1-13.11,62.85-.05c7.16,0,12.33-6.83,11.84-13.26-.5-6.64-6.08-11.88-13.1-11.61h-61.64s0-24.9,0-24.9h74.68s.16,13.76.16,13.76c.07,5.54,5.49,10.95,11.02,11.02l13.72.16.11,13.09c.06,6.82,6.29,11.97,12.68,11.82s12.05-5.2,12.1-11.82l.1-13.08,13.08-.11c6.85-.06,11.99-6.34,11.83-12.67s-5.56-12.17-12.44-12.17h-12.47s-.16-13.76-.16-13.76c-.06-5.55-5.47-10.94-11.04-11.01l-13.73-.17-.15-13.65c-.07-6.63-6.51-11.39-12.62-11.26s-12.04,5.22-12.09,11.81l-.1,13.13h-88.34c-5.65.74-11.12,5.23-11.14,11.24l-.12,38.58h-24.9s0-13.77,0-13.77c-.73-5.55-5.27-10.94-11.24-11.01l-13.68-.16v-12.49c.02-6.86-5.6-12.23-12.18-12.42s-12.61,4.99-12.66,11.81l-.1,13.09-13.09.11c-6.82.06-11.98,6.27-11.82,12.68.15,6.05,5.18,12.1,11.85,12.11l38.01.06v24.89s-12.52-.02-12.52-.02c-7.09.02-12.6,6.04-12.43,12.76s5.95,12.31,13.06,12.24l11.85-.12.11,13.18c.06,6.79,6.28,11.98,12.68,11.81,6.06-.16,12.11-5.17,12.12-11.84l.06-38.02,24.85.02ZM396.05,283.95c0-6.89-5.58-12.47-12.47-12.47s-12.47,5.58-12.47,12.47,5.58,12.47,12.47,12.47,12.47-5.58,12.47-12.47ZM495.68,283.95c0-6.89-5.58-12.47-12.47-12.47s-12.47,5.58-12.47,12.47,5.58,12.47,12.47,12.47,12.47-5.58,12.47-12.47ZM346.33,384.57c.07,6.89,6.55,11.65,12.63,11.5s12.05-5.21,12.1-11.82l.1-13.13,37.36.02c7.14,0,12.62-6.05,12.45-12.74-.18-7.02-5.93-12.24-13.09-12.23l-36.76.07-.13-38.61c-.02-6.64-6.67-11.39-12.6-11.26s-12.06,5.22-12.11,11.81l-.1,13.09-13.73.16c-5.48.07-11.02,5.46-11.02,11.04v27.48c0,5.57,5.55,10.97,11.02,11.04l13.74.17.15,13.41ZM459.28,346.1c6.9,0,11.66-6.59,11.51-12.62s-5.2-12.03-11.84-12.09l-13.07-.12-.11-13.09c-.06-6.82-6.28-11.94-12.68-11.81s-12.12,5.2-12.11,11.82l.07,26.87c.01,5.52,5.53,11.04,11.04,11.04h27.18ZM545.5,308.85c0-6.89-5.58-12.47-12.47-12.47s-12.47,5.58-12.47,12.47,5.58,12.47,12.47,12.47,12.47-5.58,12.47-12.47ZM296.42,333.76c0-6.89-5.58-12.47-12.47-12.47s-12.47,5.58-12.47,12.47,5.58,12.47,12.47,12.47,12.47-5.58,12.47-12.47ZM483.41,371.16l26-.16c5.5-.03,11.03-5.55,11.04-11.04l.06-26.88c.02-6.82-6.29-11.94-12.69-11.81s-12.05,5.2-12.1,11.81l-.1,13.09-13.09.11c-6.84.06-12,6.35-11.82,12.66s5.53,12.26,12.7,12.22ZM794.57,333.76c0-6.89-5.58-12.47-12.47-12.47s-12.47,5.58-12.47,12.47,5.58,12.47,12.47,12.47,12.47-5.58,12.47-12.47ZM808.55,869.12c5.68-.01,10.68-5.91,10.79-10.98.2-9.65.27-18.53-.07-27.98-.2-5.77-5.78-9.95-10.92-10.71h-13.8s0-24.9,0-24.9h24.91s-.01,13.78-.01,13.78c.74,5.44,5.27,11,11.24,11.01l26.79.06c6.87.01,12-6.35,11.84-12.68s-5.57-12.17-12.44-12.17h-12.51s-.01-14.32-.01-14.32c-1.09-5.16-5.39-10.47-11.24-10.49l-38.57-.11v-49.8s12.52,0,12.52,0c6.86-.05,12.26-5.6,12.43-12.2s-4.97-12.59-11.84-12.66l-13.09-.12c-.03-4.82.09-9.35-.22-14.22-.34-5.37-5.63-10.44-10.95-10.51l-13.74-.17c-.03-4.84.1-9.35-.21-14.23-.34-5.37-5.63-10.44-10.95-10.51l-13.76-.17v-24.83s13.13-.11,13.13-.11c6.83-.06,11.97-6.32,11.83-12.64s-5.19-11.76-11.84-12.22h-13.11s0-49.79,0-49.79l38.58-.11c6-.02,10.5-5.64,11.25-11.01l-.02-13.77,13.8-.16c5.38-.06,11-5.44,11.02-11.06l.11-38.6,13.75-.15c5.54-.06,10.96-5.48,11.03-11.02l.15-13.73,13.76-.17c5.34-.06,11.03-5.38,11.03-11.1v-77.15c0-5.74-5.69-11.03-11.04-11.1l-13.79-.17.02-12.49c0-6.86-5.62-12.23-12.19-12.42s-12.69,4.98-12.67,11.82l.06,26.86c.01,5.58,5.56,10.97,11.02,11.04l13.78.17v49.74s-13.76.16-13.76.16c-5.54.07-10.96,5.48-11.02,11.02l-.16,13.74-37.98.07c-6.87.01-11.98,6.37-11.85,12.69.14,6.14,5.2,12.05,11.82,12.11l13.13.11v24.83s-13.76.16-13.76.16c-5.54.07-10.96,5.48-11.02,11.02l-.16,13.74-62.85.04c-6.95,0-12.02,6.46-11.87,12.68.15,6.63,5.58,12.15,12.42,12.21h12.52s0,49.81,0,49.81l-37.4-.02c-6.9,0-12.28,5.64-12.45,12.15-.17,6.56,4.97,12.37,11.84,12.77l38.02-.02v24.92s-87.77-.01-87.77-.01c-6.99.42-12.02,6.13-11.89,12.79.11,6.05,5.22,12.01,11.82,12.06l13.13.1v49.74s-13.79.17-13.79.17c-5.38.07-11.02,5.42-11.02,11.07v52.33c0,5.51,5.58,11.08,11.09,11.08h52.33c5.65,0,11.01-5.64,11.08-11.01l.16-13.8h24.85c.04,4.9-.09,9.38.22,14.27.34,5.35,5.65,10.45,10.94,10.51l13.74.16.16,13.73c.06,5.54,5.49,10.96,11.02,11.02l13.76.16v24.83s-13.13.11-13.13.11c-6.81.06-11.98,6.28-11.82,12.68s5.17,12.12,11.86,12.11l51.99-.1ZM85.66,371.01c7.16-.02,11.96-7.05,11.5-13.17-.51-6.79-6.14-11.72-13.05-11.68l-24.99.13c-6.84.03-11.98,6.31-11.83,12.68s5.19,12.13,11.84,12.11l26.54-.06ZM221.7,358.67c0-6.89-5.58-12.47-12.47-12.47s-12.47,5.58-12.47,12.47,5.58,12.47,12.47,12.47,12.47-5.58,12.47-12.47ZM271.45,408.91l.07-12.88h12.49c7.07.01,12.58-5.98,12.43-12.75s-5.55-12.17-12.44-12.17h-12.51s.01-12.52.01-12.52c0-6.86-5.62-12.22-12.19-12.42-6.31-.18-12.61,4.99-12.66,11.81l-.1,13.13h-12.48c-6.86-.01-12.26,5.61-12.43,12.17s4.99,12.61,11.83,12.67l13.1.11.16,13.64c.08,6.62,6.52,11.42,12.61,11.26s12.09-5.17,12.13-12.07ZM769.66,358.67c0-6.89-5.58-12.47-12.47-12.47s-12.47,5.58-12.47,12.47,5.58,12.47,12.47,12.47,12.47-5.58,12.47-12.47ZM122.07,383.58c0-6.89-5.58-12.47-12.47-12.47s-12.47,5.58-12.47,12.47,5.58,12.47,12.47,12.47,12.47-5.58,12.47-12.47ZM196.73,433.81l.07-12.88h12.49c7.07.01,12.58-5.98,12.43-12.75s-5.55-12.17-12.44-12.17h-12.51s.01-12.52.01-12.52c0-6.86-5.62-12.22-12.19-12.42s-12.61,4.99-12.66,11.81l-.1,13.13h-37.36c-6.9-.01-12.28,5.59-12.45,12.18-.16,6.24,4.97,12.66,11.84,12.68l37.99.07.16,13.66c.08,6.62,6.52,11.42,12.61,11.26s12.09-5.17,12.13-12.07ZM470.77,383.58c0-6.89-5.58-12.47-12.47-12.47s-12.47,5.58-12.47,12.47,5.58,12.47,12.47,12.47,12.47-5.58,12.47-12.47ZM819.43,408.89l-.09-26.61c-.02-5.51-5.53-11.01-11.06-11.03l-26.86-.07c-6.83-.02-11.98,6.29-11.83,12.69s5.2,12.04,11.83,12.1l13.08.1.11,13.09c.06,6.81,6.29,11.98,12.67,11.81s12.16-5.16,12.14-12.08ZM97.09,558.87l.06-88.08,13.77-.16c5.46-.06,11.01-5.46,11.02-11.04l.06-26.86c.02-6.83-6.33-11.94-12.66-11.82s-11.8,5.21-12.21,11.81l.03,13.13h-24.91s-.13-38.58-.13-38.58c-.02-6.63-6.6-11.39-12.62-11.26-5.7.12-12.04,4.83-12.04,11.27l-.02,52.27c0,5.66,5.64,11.01,11.02,11.08l13.79.17v74.65s-13.68.17-13.68.17c-6.63.08-11.42,6.5-11.27,12.61s5.21,12.12,11.83,12.1l26.88-.08c5.41-.02,11.1-5.36,11.1-11.38ZM221.65,470.81l.16,13.74c.06,5.36,5.42,11.01,11.08,11.01h52.32c5.53,0,11.07-5.6,11.09-11.07l.12-38.62,13.75-.15c5.54-.06,10.96-5.49,11.02-11.01l.16-13.81,11.85.12c7.32.07,13.22-5.68,13.06-12.82s-5.93-12.29-13.07-12.24l-25.61.19c-5.57.04-10.98,5.58-11.04,11.01l-.16,13.79-13.66-.02c-5.94.76-10.51,5.26-11.22,11.25v38.58s-24.91,0-24.91,0l.02-38.02c-.41-6.86-6.14-11.95-12.8-11.83-6.05.11-12.02,5.21-12.07,11.81l-.09,13.13h-12.48c-6.86-.01-12.26,5.61-12.43,12.17s4.98,12.6,11.83,12.67l13.09.12ZM396.05,408.49c0-6.89-5.58-12.47-12.47-12.47s-12.47,5.58-12.47,12.47,5.58,12.47,12.47,12.47,12.47-5.58,12.47-12.47ZM445.87,408.49c0-6.89-5.58-12.47-12.47-12.47s-12.47,5.58-12.47,12.47,5.58,12.47,12.47,12.47,12.47-5.58,12.47-12.47ZM769.66,408.49c0-6.89-5.58-12.47-12.47-12.47s-12.47,5.58-12.47,12.47,5.58,12.47,12.47,12.47,12.47-5.58,12.47-12.47ZM384.56,470.63c7.12,0,11.94-6.97,11.49-13.18s-5.75-11.6-12.42-11.61h-12.47s-.11-13.13-.11-13.13c-.06-6.81-6.28-11.94-12.68-11.81s-12.12,5.2-12.11,11.82l.07,26.87c.01,5.52,5.54,11.04,11.04,11.04h27.18ZM420.96,433.39c0-6.89-5.58-12.47-12.47-12.47s-12.47,5.58-12.47,12.47,5.58,12.47,12.47,12.47,12.47-5.58,12.47-12.47ZM620.21,520.6l-.02,37.99c.43,6.83,6.13,12.01,12.8,11.82,5.99-.17,12.09-5.11,12.09-11.89l-.04-101.41c0-5.8-5.73-11.05-11.05-11.12l-13.8-.18.02-12.49c0-6.86-5.62-12.23-12.19-12.42s-12.69,4.97-12.67,11.82l.06,26.8c.01,5.96,5.57,10.49,11.01,11.23h13.79s0,24.9,0,24.9h-37.4c-6.9-.01-12.28,5.59-12.45,12.18s4.97,12.66,11.84,12.67l38.03.08ZM160.39,520.45c6.9,0,11.66-6.59,11.51-12.62s-5.2-12.03-11.84-12.09l-13.07-.12-.11-13.09c-.06-6.82-6.28-11.94-12.68-11.81s-12.12,5.2-12.11,11.82l.07,26.87c.01,5.52,5.53,11.04,11.04,11.04h27.18ZM196.79,483.21c0-6.89-5.58-12.47-12.47-12.47s-12.47,5.58-12.47,12.47,5.58,12.47,12.47,12.47,12.47-5.58,12.47-12.47ZM346.24,483.21c0-6.89-5.58-12.47-12.47-12.47s-12.47,5.58-12.47,12.47,5.58,12.47,12.47,12.47,12.47-5.58,12.47-12.47ZM420.96,483.21c0-6.89-5.58-12.47-12.47-12.47s-12.47,5.58-12.47,12.47,5.58,12.47,12.47,12.47,12.47-5.58,12.47-12.47ZM570.4,483.21c0-6.89-5.58-12.47-12.47-12.47s-12.47,5.58-12.47,12.47,5.58,12.47,12.47,12.47,12.47-5.58,12.47-12.47ZM831.5,545.44l26.62-.09c5.42-.02,11.05-5.49,11.05-11.08l.05-51.72c0-6.88-6.33-11.96-12.7-11.84s-12.1,5.19-12.12,11.83l-.06,38.01h-12.5c-6.86,0-12.27,5.62-12.43,12.17s4.95,12.73,12.09,12.71ZM221.7,508.12c0-6.89-5.58-12.47-12.47-12.47s-12.47,5.58-12.47,12.47,5.58,12.47,12.47,12.47,12.47-5.58,12.47-12.47ZM321.33,508.12c0-6.89-5.58-12.47-12.47-12.47s-12.47,5.58-12.47,12.47,5.58,12.47,12.47,12.47,12.47-5.58,12.47-12.47ZM445.87,508.12c0-6.89-5.58-12.47-12.47-12.47s-12.47,5.58-12.47,12.47,5.58,12.47,12.47,12.47,12.47-5.58,12.47-12.47ZM458.51,545.51l26-.16c5.5-.03,11.03-5.55,11.04-11.04l.06-26.88c.02-6.82-6.29-11.94-12.69-11.81s-12.05,5.2-12.1,11.81l-.1,13.09-13.09.11c-6.84.06-12,6.35-11.83,12.66s5.53,12.26,12.7,12.22ZM271.46,570.44l.1,13.08c.05,6.8,6.28,11.98,12.68,11.81s12.12-5.17,12.11-11.85l-.06-51.72c0-5.5-5.57-11.07-11.1-11.08l-51.71-.06c-6.89,0-11.99,6.34-11.85,12.69s5.21,12.05,11.82,12.1l13.11.1c.03,4.83-.1,9.35.22,14.23.35,5.35,5.64,10.44,10.94,10.51l13.73.19ZM396.05,533.02c0-6.89-5.58-12.47-12.47-12.47s-12.47,5.58-12.47,12.47,5.58,12.47,12.47,12.47,12.47-5.58,12.47-12.47ZM296.44,645.09l-.11-13.13c-.06-6.8-6.28-11.94-12.68-11.8s-12.05,5.2-12.1,11.81l-.1,13.13h-24.87s0-24.91,0-24.91h12.52c7.07,0,12.58-5.98,12.43-12.75s-5.55-12.17-12.44-12.17h-12.48s-.16-13.68-.16-13.68c-.08-6.62-6.51-11.39-12.62-11.25s-12.04,5.22-12.09,11.81l-.1,13.13h-24.83s-.16-13.76-.16-13.76c-.06-5.55-5.47-10.95-11.04-11.01l-13.71-.16-.16-13.75c-.06-5.46-5.45-10.99-11.06-11.01l-26.85-.07c-6.84-.02-11.98,6.33-11.83,12.66s5.2,11.79,11.83,12.22l13.13-.02v24.9s-87.78.03-87.78.03c-6.96,0-12.04,6.4-11.89,12.72s5.1,12.14,11.91,12.15l112.66.02v38.57c.75,6,5.2,10.5,11.26,11.25h63.46s.1,63.45.1,63.45c.01,6.71,6.75,11.44,12.61,11.3,6.22-.14,12.08-5.22,12.13-11.82l.1-13.09,13.75-.17c5.39-.07,11.01-5.44,11.02-11.05l.11-38.62h12.51c7.07,0,12.59-5.98,12.43-12.75s-5.55-12.16-12.44-12.17h-12.47ZM221.7,557.93c0-6.89-5.58-12.47-12.47-12.47s-12.47,5.58-12.47,12.47,5.58,12.47,12.47,12.47,12.47-5.58,12.47-12.47ZM335.37,620.01c5.48-.03,10.74-5.74,10.75-10.99l.11-38.61,13.11-.1c7.07-.05,12.29-6.72,11.8-13.23s-6.14-11.73-13.05-11.68l-25.64.19c-5.43.04-11.03,5.53-11.05,11.05l-.11,38.64h-12.51c-6.86,0-12.26,5.62-12.43,12.18s4.99,12.71,11.83,12.67l27.18-.13ZM408.69,595.33l26-.16c5.5-.03,11.03-5.55,11.04-11.04l.06-26.88c.02-6.82-6.29-11.94-12.69-11.81s-12.05,5.2-12.1,11.81l-.1,13.09-13.09.11c-6.84.06-12,6.35-11.83,12.66s5.53,12.26,12.7,12.22ZM559.5,620.2c5.62-1.02,10.77-5.46,10.77-11.23v-27.43c0-5.53-5.52-11.03-11.05-11.03h-27.48c-5.57-.01-10.98,5.53-11.04,11l-.16,13.78h-24.87s0-12.53,0-12.53c0-6.86-5.61-12.23-12.19-12.42s-12.61,4.99-12.66,11.81l-.1,13.09-13.08.11c-6.62.06-11.68,5.92-11.83,12.12s4.63,12.57,11.28,12.59l38.57.13v12.52c0,6.85,5.62,12.26,12.18,12.42,6.31.16,12.62-4.99,12.67-11.82l.1-13.13h38.89ZM633.64,620.08c7.12-.08,11.94-6.91,11.48-13.19s-5.75-11.6-12.42-11.6h-12.47s-.11-13.13-.11-13.13c-.05-6.6-5.91-11.64-12.13-11.81-5.88-.16-12.59,4.61-12.59,11.28l-.07,51.66c0,6.89,6.34,11.99,12.69,11.85s12.06-5.2,12.11-11.82l.1-13.1,13.4-.15ZM794.57,582.84c0-6.89-5.58-12.47-12.47-12.47s-12.47,5.58-12.47,12.47,5.58,12.47,12.47,12.47,12.47-5.58,12.47-12.47ZM844.36,719.82h-13.13c-6.81.44-11.98,6.14-11.82,12.79.14,6.05,5.2,12.1,11.83,12.08l26.89-.08c5.33-.02,11.09-5.39,11.09-11.16l.02-151.17c0-7.02-6.38-12.02-12.72-11.91-6.06.11-12.13,5.16-12.13,11.85l-.04,62.88h-12.5c-6.86.01-12.26,5.62-12.43,12.19s4.99,12.61,11.83,12.66l13.13.1v49.77ZM819.48,607.75c0-6.89-5.58-12.47-12.47-12.47s-12.47,5.58-12.47,12.47,5.58,12.47,12.47,12.47,12.47-5.58,12.47-12.47ZM396.05,632.65c0-6.89-5.58-12.47-12.47-12.47s-12.47,5.58-12.47,12.47,5.58,12.47,12.47,12.47,12.47-5.58,12.47-12.47ZM445.87,632.65c0-6.89-5.58-12.47-12.47-12.47s-12.47,5.58-12.47,12.47,5.58,12.47,12.47,12.47,12.47-5.58,12.47-12.47ZM794.57,632.65c0-6.89-5.58-12.47-12.47-12.47s-12.47,5.58-12.47,12.47,5.58,12.47,12.47,12.47,12.47-5.58,12.47-12.47ZM110.54,669.91c7.22,0,11.97-7.15,11.52-13.17-.52-6.87-6.11-11.7-13.08-11.68l-49.84.09c-6.89.01-12,6.36-11.85,12.69s5.16,12.13,11.86,12.12l51.4-.05ZM371.14,657.56c0-6.89-5.58-12.47-12.47-12.47s-12.47,5.58-12.47,12.47,5.58,12.47,12.47,12.47,12.47-5.58,12.47-12.47ZM520.76,758.84c.08,5.41,5.63,10.7,11,10.71l38.59.11.1,13.11c.05,6.6,5.92,11.67,12.12,11.82,5.9.14,12.6-4.62,12.6-11.28v-52.3c.01-5.44-5.49-11.1-11.14-11.1l-88.33-.08-.1-13.13c-.05-6.82-6.32-11.94-12.65-11.81-6.36.13-11.8,5.2-12.21,11.82v13.13s-49.81,0-49.81,0l.02-62.28c0-6.97-5.58-12.27-12.21-12.47-6.22-.18-12.68,4.93-12.68,11.85l-.04,62.9h-24.9s.01-13.7.01-13.7c-.84-6.57-6.3-11.38-12.82-11.24-5.67.12-11.97,4.86-11.97,11.25v27.46c0,5.34,5.4,11.07,11.15,11.08l113.22.06.17,13.68c.08,6.63,6.51,11.42,12.61,11.26s12.05-5.21,12.1-11.82l.1-13.13h24.84s.22,14.1.22,14.1ZM470.77,657.56c0-6.89-5.58-12.47-12.47-12.47s-12.47,5.58-12.47,12.47,5.58,12.47,12.47,12.47,12.47-5.58,12.47-12.47ZM545.45,682.87l-.02-25.98c0-6.63-5.96-11.64-12.13-11.82s-12.58,4.64-12.6,11.26l-.08,26.8c-.02,6.83,6.29,11.98,12.68,11.82s12.15-5.15,12.14-12.09ZM346.24,682.47c0-6.89-5.58-12.47-12.47-12.47s-12.47,5.58-12.47,12.47,5.58,12.47,12.47,12.47,12.47-5.58,12.47-12.47ZM595.31,682.47c0-6.89-5.58-12.47-12.47-12.47s-12.47,5.58-12.47,12.47,5.58,12.47,12.47,12.47,12.47-5.58,12.47-12.47ZM221.68,694.92H47.32v174.35h174.35v-174.35ZM309.73,819.53l50.19-.18c5.6-.02,11.08-5.63,11.08-11.04v-27.51c0-5.58-5.52-10.96-11.02-11.03l-13.74-.17c-.03-4.84.1-9.35-.21-14.24-.34-5.37-5.63-10.44-10.95-10.51l-13.74-.17-.15-13.65c-.07-6.63-6.51-11.39-12.62-11.26-6.14.13-12.04,5.21-12.09,11.81l-.1,13.09-13.74.16c-5.46.07-11.01,5.46-11.02,11.04l-.06,26.86c-.02,6.83,6.33,11.97,12.66,11.82,6.36-.15,11.8-5.2,12.22-11.82l-.03-13.13h24.92s0,24.91,0,24.91h-12.53c-7.07-.02-12.62,6.06-12.42,12.72.21,7.04,5.87,12.29,13.37,12.26ZM520.59,782.1c0-6.89-5.58-12.47-12.47-12.47s-12.47,5.58-12.47,12.47,5.58,12.47,12.47,12.47,12.47-5.58,12.47-12.47ZM271.51,807.01c0-6.89-5.58-12.47-12.47-12.47s-12.47,5.58-12.47,12.47,5.58,12.47,12.47,12.47,12.47-5.58,12.47-12.47ZM420.96,807.01c0-6.89-5.58-12.47-12.47-12.47s-12.47,5.58-12.47,12.47,5.58,12.47,12.47,12.47,12.47-5.58,12.47-12.47ZM445.81,857.24l.07-12.88h24.88s0,12.53,0,12.53c0,7.05,5.99,12.59,12.75,12.41s12.19-5.52,12.19-12.46l-.06-50.49c0-6.89-6.38-11.96-12.7-11.84-6.14.11-12.06,5.21-12.11,11.81l-.1,13.12-38.6.12c-5.56.02-11.05,5.61-11.06,11.04l-.06,26.89c-.02,6.81,6.3,11.97,12.68,11.82,6.15-.15,12.09-5.16,12.13-12.07ZM309.84,869.16c6.9,0,11.66-6.59,11.51-12.62s-5.2-12.03-11.84-12.09l-13.07-.12-.11-13.09c-.06-6.82-6.28-11.95-12.68-11.81-6.12.13-12.12,5.2-12.11,11.82l.07,26.87c.01,5.52,5.53,11.04,11.04,11.04h27.18ZM545.53,844.41l13.08-.11c7.06-.06,12.28-6.72,11.8-13.23-.5-6.72-6.14-11.73-13.05-11.67l-25.62.19c-5.5.04-11.03,5.55-11.04,11.04l-.06,26.88c-.02,6.82,6.3,11.97,12.69,11.82s12.04-5.2,12.1-11.82l.11-13.09ZM620.22,831.91c0-6.89-5.58-12.47-12.47-12.47s-12.47,5.58-12.47,12.47,5.58,12.47,12.47,12.47,12.47-5.58,12.47-12.47ZM708.33,869.17c7.21,0,11.96-7.14,11.51-13.16-.51-6.87-6.13-11.69-13.07-11.68l-36.74.06-.16-13.71c-.08-6.61-6.46-11.38-12.63-11.25-5.76.12-12.01,4.86-12.01,11.25v27.44c0,5.43,5.47,11.05,11.07,11.05h52.02ZM384.55,869.16c7.16-.02,11.96-7.05,11.5-13.17-.51-6.79-6.14-11.72-13.05-11.68l-24.99.13c-6.84.03-11.98,6.31-11.83,12.68s5.19,12.13,11.84,12.11l26.54-.06ZM869.29,856.82c0-6.89-5.58-12.47-12.47-12.47s-12.47,5.58-12.47,12.47,5.58,12.47,12.47,12.47,12.47-5.58,12.47-12.47Z"/>
      <path d="M808.55,869.12l-51.99.1c-6.69.01-11.7-6.02-11.86-12.11-.17-6.4,5.01-12.62,11.82-12.68l13.13-.11v-24.83s-13.76-.16-13.76-.16c-5.54-.07-10.96-5.48-11.02-11.02l-.16-13.73-13.74-.16c-5.29-.06-10.6-5.16-10.94-10.51-.31-4.9-.18-9.37-.22-14.27h-24.85s-.16,13.79-.16,13.79c-.06,5.37-5.43,11.01-11.08,11.01h-52.33c-5.51,0-11.09-5.58-11.09-11.09v-52.33c0-5.65,5.64-11,11.02-11.07l13.79-.17v-49.74s-13.13-.1-13.13-.1c-6.6-.05-11.71-6.02-11.82-12.06-.12-6.66,4.91-12.37,11.89-12.79h87.77s0-24.91,0-24.91l-38.02.02c-6.87-.4-12.01-6.21-11.84-12.77.17-6.51,5.55-12.16,12.45-12.15l37.4.02v-49.81s-12.53,0-12.53,0c-6.84-.06-12.27-5.58-12.42-12.21-.14-6.22,4.92-12.68,11.87-12.68l62.85-.04.16-13.74c.06-5.54,5.49-10.96,11.02-11.02l13.76-.16v-24.83s-13.13-.11-13.13-.11c-6.62-.05-11.69-5.97-11.82-12.11-.14-6.32,4.97-12.68,11.85-12.69l37.98-.07.16-13.74c.06-5.54,5.48-10.96,11.02-11.02l13.76-.16v-49.74s-13.78-.17-13.78-.17c-5.46-.07-11.01-5.46-11.02-11.04l-.06-26.86c-.02-6.83,6.36-12,12.67-11.82s12.2,5.56,12.19,12.42l-.02,12.49,13.79.17c5.35.07,11.04,5.36,11.04,11.1v77.15c0,5.73-5.7,11.04-11.03,11.1l-13.76.17-.15,13.73c-.06,5.54-5.49,10.96-11.03,11.02l-13.75.15-.11,38.6c-.02,5.62-5.64,11-11.02,11.06l-13.8.16.02,13.77c-.76,5.37-5.26,10.99-11.25,11.01l-38.58.11v49.8s13.12,0,13.12,0c6.65.46,11.69,5.83,11.84,12.22s-5,12.58-11.83,12.64l-13.13.11v24.83s13.76.17,13.76.17c5.32.06,10.61,5.14,10.95,10.51.31,4.88.18,9.4.21,14.23l13.74.17c5.32.06,10.61,5.14,10.95,10.51.31,4.87.18,9.4.22,14.22l13.09.12c6.87.06,12,6.34,11.84,12.66s-5.57,12.14-12.43,12.2h-12.52s0,49.79,0,49.79l38.57.11c5.85.02,10.15,5.33,11.24,10.49v14.32s12.52,0,12.52,0c6.87,0,12.28,5.62,12.44,12.17s-4.97,12.69-11.84,12.68l-26.79-.06c-5.97-.01-10.5-5.57-11.24-11.01v-13.79s-24.9,0-24.9,0v24.91s13.8,0,13.8,0c5.14.76,10.71,4.94,10.92,10.71.33,9.45.27,18.33.07,27.98-.11,5.07-5.11,10.97-10.79,10.98ZM744.74,670.01h-74.72v74.72h74.72v-74.72Z"/>
      <path d="M570.42,396.03l-.08,38.02c-.01,6.88-6.42,11.99-12.68,11.84-6.58-.16-12.19-5.58-12.19-12.42v-12.52s-49.77,0-49.77,0l-.16,13.76c-.06,5.53-5.49,10.95-11.03,11.02l-13.72.16-.1,13.09c-.05,6.62-5.98,11.68-12.1,11.82s-12.7-5-12.69-11.82l.06-26.86c.01-5.58,5.56-10.98,11.02-11.04l13.74-.16.16-13.77c.06-5.33,5.39-11.02,11.1-11.03l63.46-.09.15-13.75c.06-5.54,5.48-10.96,11.03-11.02l13.73-.16.16-13.73c.06-5.54,5.49-10.96,11.02-11.02l13.76-.16v-24.83s-13.13-.11-13.13-.11c-6.62-.05-11.69-5.97-11.82-12.11s4.97-12.68,11.85-12.69l37.97-.07.1-13.11c.05-6.6,5.95-11.68,12.09-11.81s12.55,4.63,12.62,11.26l.15,13.65,13.73.17c5.56.07,10.97,5.46,11.04,11.01l.16,13.76h49.78s0-24.91,0-24.91h-38.58c-5.98-.71-10.5-5.28-11.25-11.21l.02-13.66-13.77-.16c-5.53-.07-10.96-5.48-11.02-11.02l-.16-13.72-13.09-.11c-6.84-.06-11.99-6.35-11.83-12.67.17-6.56,5.57-12.19,12.43-12.18h12.48s.11-13.12.11-13.12c.05-6.59,5.92-11.68,12.11-11.81s12.58,4.62,12.6,11.27l.13,38.55,13.75.17c5.32.06,10.61,5.14,10.95,10.51.31,4.9.18,9.37.22,14.27h24.85s.17-13.8.17-13.8c.06-5.3,5.35-11.03,11.13-11.03h102c5.57,0,10.69,5.41,11.06,10.53.36,4.98.19,9.4.23,14.28l13.74.17c5.5.07,11.03,5.44,11.03,11.04v27.42c-.01,6.41-6.27,11.12-12.03,11.26-6.17.15-12.55-4.65-12.62-11.26l-.16-13.68-63.43-.08c-5.9,0-10.14-5.41-11.26-10.51v-14.33s-24.92,0-24.92,0v24.87s13.12.11,13.12.11c6.65.06,11.7,5.97,11.84,12.09.15,6.39-5,12.62-11.83,12.67l-13.09.11-.16,13.72c-.06,5.53-5.49,10.95-11.03,11.02l-13.76.17v99.54s13.76.18,13.76.18c5.5.07,11.03,5.45,11.03,11.03v27.49c0,5.51-5.53,11.03-11.04,11.03h-27.51c-5.43,0-11.03-5.5-11.04-11.06l-.11-38.64h-13.79c-5.37-.75-11-5.24-11.02-11.23l-.11-38.58h-24.9s.02,13.13.02,13.13c-.38,6.62-5.9,11.67-12.18,11.82s-12.35-5-12.76-11.82v-13.13s-49.76,0-49.76,0ZM656.05,346.22c-6.04-.99-10.22-5.48-10.95-11.22v-13.7s-24.9,0-24.9,0v49.82s74.72,0,74.72,0v-24.91s-38.87,0-38.87,0Z"/>
      <path d="M296.6,210.73l-.2-38.87h-24.88s-.06,38.02-.06,38.02c-.01,6.64-6.05,11.71-12.13,11.83s-12.71-4.89-12.71-11.91v-125.69c0-7.03,6.46-12.05,12.69-11.9,6.6.15,12.21,5.58,12.2,12.4v12.53s38.63-.01,38.63-.01c5.51.79,11.06,5.23,11.08,11.25l.11,38.58h49.8s0-13.77,0-13.77c.73-5.54,5.27-10.96,11.23-11.02l13.67-.14.12-38.62c.02-5.49,5.58-11.05,11.07-11.07l38.61-.12.09-13.12c.05-6.61,5.98-11.69,12.1-11.81s12.71,4.99,12.69,11.82l-.06,26.86c-.01,5.58-5.56,10.98-11.02,11.04l-13.78.16v24.87s12.52,0,12.52,0c6.87,0,12.28,5.61,12.44,12.18s-4.95,12.67-11.85,12.68l-38,.06-.03,62.88c0,6.72-6.1,11.7-12.08,11.87-6.48.18-11.98-4.65-12.81-11.26v-38.59s-24.9,0-24.9,0v87.77c-.34,6.75-5.85,11.72-12.14,11.88s-11.97-4.59-12.76-11.31v-88.35s-24.91,0-24.91,0l.02,38.01c-.4,6.45-5.45,11.37-11.67,11.82-5.79.42-13.02-4.04-13.05-10.96Z"/>
      <path d="M296.44,645.09h12.47c6.9.01,12.3,5.68,12.44,12.17s-5.36,12.75-12.43,12.75h-12.51s-.11,38.62-.11,38.62c-.02,5.61-5.64,10.99-11.02,11.05l-13.75.17-.1,13.09c-.05,6.6-5.91,11.67-12.13,11.82-5.85.14-12.59-4.6-12.61-11.3l-.1-63.46h-63.46c-6.06-.74-10.51-5.23-11.28-11.23v-38.57s-112.65-.02-112.65-.02c-6.8,0-11.76-6.1-11.91-12.15s4.92-12.71,11.89-12.72l87.77-.03v-24.9s-13.12.02-13.12.02c-6.62-.42-11.68-5.85-11.83-12.22s4.99-12.67,11.83-12.66l26.85.07c5.6.01,10.99,5.55,11.06,11.01l.16,13.75,13.71.16c5.56.07,10.97,5.46,11.04,11.01l.16,13.76h24.83s.1-13.13.1-13.13c.05-6.6,5.95-11.68,12.09-11.81s12.54,4.63,12.62,11.25l.16,13.68h12.48c6.89,0,12.29,5.68,12.44,12.16s-5.36,12.75-12.43,12.75h-12.52s0,24.9,0,24.9h24.87s.1-13.13.1-13.13c.05-6.61,5.98-11.69,12.1-11.81s12.63,5,12.68,11.8l.11,13.13ZM221.68,620.2h-24.91v24.91h24.91v-24.91Z"/>
      <path d="M171.82,321.32l-24.85-.02-.06,38.02c-.01,6.67-6.06,11.68-12.12,11.84-6.41.17-12.63-5.01-12.68-11.81l-.11-13.18-11.85.12c-7.11.07-12.88-5.31-13.06-12.24s5.34-12.74,12.43-12.76l12.52.02v-24.89s-38.01-.06-38.01-.06c-6.67-.01-11.69-6.06-11.85-12.11-.16-6.41,5-12.63,11.82-12.68l13.09-.11.1-13.09c.05-6.83,6.35-12,12.66-11.81s12.2,5.56,12.19,12.42v12.49s13.67.16,13.67.16c5.97.07,10.51,5.47,11.24,11.01v13.77s24.89,0,24.89,0l.12-38.58c.02-6.01,5.49-10.5,11.14-11.24h88.34s.1-13.13.1-13.13c.05-6.6,5.95-11.68,12.09-11.81s12.55,4.63,12.62,11.26l.15,13.65,13.73.17c5.56.07,10.97,5.46,11.04,11.01l.16,13.76h12.47c6.88,0,12.27,5.62,12.44,12.18s-4.98,12.61-11.83,12.67l-13.08.11-.1,13.08c-.05,6.63-5.98,11.67-12.1,11.82s-12.62-5-12.68-11.82l-.11-13.09-13.72-.16c-5.54-.07-10.96-5.48-11.02-11.02l-.16-13.76h-74.68s0,24.91,0,24.91h61.64c7.01-.28,12.6,4.97,13.1,11.6.48,6.44-4.68,13.26-11.84,13.26l-62.85.05-.1,13.11c-.05,6.63-5.98,11.67-12.1,11.82s-12.62-5.01-12.68-11.81l-.11-13.13Z"/>
      <path d="M221.68,47.32v174.35H47.32V47.32h174.35ZM196.77,72.23h-124.54v124.54h124.54v-124.54Z"/>
      <path d="M869.28,47.32v174.35h-174.35V47.32h174.35ZM844.37,72.23h-124.54v124.54h124.54v-124.54Z"/>
      <path d="M221.68,694.92v174.35H47.32v-174.35h174.35ZM196.77,719.83h-124.54v124.54h124.54v-124.54Z"/>
      <path d="M520.76,758.84l-.22-14.1h-24.84s-.1,13.13-.1,13.13c-.05,6.61-5.95,11.66-12.1,11.82s-12.53-4.64-12.61-11.26l-.17-13.68-113.22-.06c-5.75,0-11.14-5.74-11.15-11.08v-27.46c0-6.39,6.3-11.13,11.96-11.25,6.52-.14,11.98,4.67,12.82,11.24v13.7s24.88,0,24.88,0l.04-62.9c0-6.92,6.46-12.04,12.68-11.85,6.63.2,12.21,5.5,12.21,12.47l-.02,62.28h49.81s0-13.13,0-13.13c.4-6.61,5.85-11.69,12.21-11.82,6.33-.13,12.6,4.99,12.65,11.81l.1,13.13,88.33.08c5.65,0,11.15,5.66,11.15,11.1v52.3c-.01,6.65-6.71,11.41-12.61,11.28-6.2-.14-12.07-5.22-12.12-11.82l-.1-13.11-38.59-.11c-5.37-.02-10.92-5.31-11-10.71Z"/>
      <path d="M595.25,196.78h-12.48c-6.85,0-12.27-5.65-12.43-12.15s4.96-12.37,11.84-12.78l38.01.02v-24.92s-38.58,0-38.58,0c-5.98-.72-10.5-5.29-11.25-11.22v-13.68s-38.62-.11-38.62-.11c-5.38-.02-10.63-5.31-10.98-10.52-.33-4.94-.19-9.41-.22-14.25l-13.11-.11c-6.84-.06-11.99-6.35-11.83-12.67s5.57-12.19,12.43-12.18h12.48s.16-13.77.16-13.77c.06-5.43,5.47-10.97,11.04-11.01l25.61-.19c7.14-.05,12.92,5.34,13.08,12.26s-5.74,13.06-13.06,12.73h-11.9s0,24.89,0,24.89l38.57.11c5.85.02,10.15,5.33,11.24,10.49v14.31s38.64.12,38.64.12c5.5.02,11.08,5.55,11.08,11.07v52.33c0,5.65-5.64,11-11.02,11.07l-13.75.17-.1,13.09c-.05,6.63-5.98,11.67-12.1,11.82s-12.62-5.01-12.68-11.81l-.11-13.13Z"/>
      <path d="M97.09,558.87c0,6.02-5.69,11.36-11.1,11.38l-26.88.08c-6.61.02-11.67-5.96-11.83-12.1s4.64-12.53,11.27-12.61l13.68-.17v-74.65s-13.79-.17-13.79-.17c-5.38-.07-11.02-5.41-11.02-11.08l.02-52.27c0-6.44,6.34-11.15,12.04-11.27,6.02-.13,12.6,4.64,12.62,11.26l.13,38.58h24.91s-.03-13.13-.03-13.13c.42-6.61,5.85-11.69,12.21-11.81s12.68,4.99,12.66,11.82l-.06,26.86c-.01,5.58-5.56,10.98-11.02,11.04l-13.77.16-.06,88.08Z"/>
      <path d="M221.65,470.81l-13.09-.12c-6.85-.06-11.99-6.34-11.83-12.67s5.57-12.19,12.43-12.18h12.48s.09-13.12.09-13.12c.05-6.6,6.02-11.7,12.07-11.81,6.65-.12,12.38,4.97,12.8,11.83l-.02,38.02h24.92s0-38.58,0-38.58c.71-5.99,5.28-10.49,11.22-11.25l13.66.02.16-13.79c.06-5.43,5.47-10.97,11.04-11.01l25.61-.19c7.14-.05,12.92,5.37,13.07,12.24s-5.73,12.89-13.06,12.82l-11.85-.12-.16,13.81c-.06,5.53-5.49,10.95-11.02,11.01l-13.75.15-.12,38.62c-.02,5.47-5.56,11.06-11.09,11.07h-52.32c-5.66,0-11.01-5.64-11.08-11.01l-.16-13.74Z"/>
      <path d="M309.73,819.53c-7.5.03-13.16-5.22-13.37-12.26-.2-6.66,5.35-12.74,12.42-12.73h12.53s0-24.9,0-24.9h-24.92s.03,13.13.03,13.13c-.41,6.62-5.85,11.67-12.22,11.82-6.32.15-12.67-5-12.66-11.82l.06-26.86c.01-5.58,5.56-10.98,11.02-11.04l13.74-.16.1-13.09c.05-6.6,5.95-11.68,12.09-11.81,6.11-.13,12.55,4.63,12.62,11.26l.15,13.65,13.74.17c5.32.07,10.61,5.14,10.95,10.51.31,4.88.18,9.39.21,14.24l13.74.17c5.5.07,11.03,5.45,11.03,11.03v27.51c0,5.41-5.49,11.02-11.09,11.04l-50.19.18Z"/>
      <path d="M844.36,719.82v-49.77s-13.12-.1-13.12-.1c-6.84-.05-11.99-6.35-11.83-12.66s5.57-12.18,12.43-12.18h12.5s.04-62.89.04-62.89c0-6.69,6.07-11.74,12.13-11.85,6.34-.11,12.72,4.88,12.72,11.91l-.02,151.17c0,5.77-5.75,11.14-11.09,11.16l-26.89.08c-6.62.02-11.68-6.03-11.83-12.08-.16-6.65,5.01-12.35,11.82-12.8h13.13Z"/>
      <path d="M620.21,520.6l-38.03-.08c-6.87-.01-12-6.42-11.84-12.67.17-6.59,5.55-12.19,12.45-12.19h37.4s0-24.9,0-24.9h-13.79c-5.44-.74-11-5.26-11.01-11.22l-.06-26.8c-.02-6.85,6.36-12,12.67-11.82s12.2,5.56,12.19,12.42l-.02,12.49,13.8.18c5.32.07,11.05,5.32,11.05,11.12l.04,101.41c0,6.78-6.1,11.72-12.09,11.89-6.67.18-12.37-5-12.8-11.82l.02-37.99Z"/>
      <path d="M559.5,620.2h-38.89s-.1,13.13-.1,13.13c-.05,6.83-6.35,11.98-12.67,11.82-6.57-.17-12.19-5.57-12.19-12.42v-12.52s-38.57-.13-38.57-.13c-6.65-.02-11.42-6.67-11.28-12.59s5.21-12.06,11.83-12.12l13.08-.11.1-13.09c.05-6.83,6.35-12,12.66-11.81s12.2,5.56,12.19,12.42v12.52s24.87,0,24.87,0l.16-13.78c.06-5.47,5.47-11.02,11.04-11.01h27.48c5.54.01,11.05,5.52,11.05,11.04v27.43c0,5.77-5.15,10.21-10.77,11.23Z"/>
      <path d="M346.33,384.57l-.15-13.41-13.74-.17c-5.47-.07-11.02-5.47-11.02-11.04v-27.48c0-5.57,5.54-10.97,11.02-11.04l13.73-.16.1-13.09c.05-6.6,5.92-11.68,12.11-11.81s12.58,4.62,12.6,11.26l.13,38.61,36.76-.07c7.16-.01,12.91,5.21,13.09,12.23.17,6.69-5.32,12.74-12.45,12.74l-37.36-.02-.1,13.13c-.05,6.6-5.95,11.66-12.1,11.82s-12.56-4.61-12.63-11.5Z"/>
      <path d="M271.46,570.44l-13.73-.19c-5.3-.07-10.6-5.16-10.94-10.51-.32-4.88-.18-9.4-.22-14.23l-13.11-.1c-6.62-.05-11.69-5.97-11.82-12.1s4.97-12.69,11.85-12.69l51.71.06c5.53,0,11.1,5.58,11.1,11.08l.06,51.72c0,6.68-6.03,11.68-12.11,11.85-6.4.17-12.63-5.01-12.68-11.81l-.1-13.08Z"/>
      <path d="M445.81,857.24c-.04,6.91-5.98,11.92-12.13,12.07-6.38.16-12.7-5-12.68-11.82l.06-26.89c.01-5.44,5.51-11.03,11.06-11.04l38.6-.12.1-13.12c.05-6.6,5.97-11.7,12.11-11.81,6.32-.12,12.69,4.95,12.7,11.84l.06,50.49c0,6.94-5.69,12.29-12.19,12.46s-12.76-5.37-12.75-12.41v-12.53s-24.87,0-24.87,0l-.07,12.88Z"/>
      <path d="M196.73,433.81c-.04,6.89-5.95,11.91-12.13,12.07s-12.53-4.64-12.61-11.26l-.16-13.66-37.99-.07c-6.88-.01-12.01-6.43-11.84-12.68.17-6.6,5.55-12.2,12.45-12.19h37.36s.1-13.12.1-13.12c.05-6.82,6.35-12,12.66-11.81s12.2,5.56,12.19,12.42v12.52s12.5,0,12.5,0c6.89,0,12.29,5.68,12.44,12.17s-5.36,12.76-12.43,12.75h-12.49s-.07,12.87-.07,12.87Z"/>
      <path d="M335.37,620.01l-27.18.13c-6.84.03-11.99-6.34-11.83-12.67s5.57-12.18,12.43-12.18h12.51s.11-38.63.11-38.63c.02-5.52,5.61-11.01,11.05-11.05l25.64-.19c6.91-.05,12.55,4.95,13.05,11.68s-4.73,13.18-11.8,13.23l-13.11.1-.11,38.61c-.01,5.25-5.27,10.96-10.75,10.99Z"/>
      <path d="M271.45,408.91c-.04,6.89-5.95,11.91-12.13,12.07s-12.53-4.64-12.61-11.26l-.16-13.64-13.1-.11c-6.84-.06-11.99-6.35-11.83-12.67s5.57-12.19,12.43-12.18h12.48s.1-13.12.1-13.12c.05-6.82,6.35-11.99,12.66-11.81,6.57.19,12.2,5.56,12.19,12.42v12.52s12.5,0,12.5,0c6.89,0,12.29,5.68,12.44,12.17s-5.36,12.76-12.43,12.75h-12.49s-.07,12.87-.07,12.87Z"/>
      <path d="M708.33,869.17h-52.02c-5.61,0-11.08-5.61-11.08-11.05v-27.44c0-6.39,6.26-11.14,12.02-11.25,6.17-.13,12.55,4.65,12.63,11.25l.16,13.71,36.74-.06c6.94-.01,12.56,4.81,13.07,11.68.45,6.02-4.3,13.16-11.51,13.16Z"/>
      <path d="M831.5,545.44c-7.14.02-12.24-6.36-12.09-12.71s5.57-12.18,12.43-12.18h12.5s.06-38.01.06-38.01c.01-6.64,6.05-11.71,12.12-11.83,6.38-.13,12.71,4.96,12.7,11.84l-.05,51.72c0,5.59-5.63,11.06-11.05,11.08l-26.62.09Z"/>
      <path d="M532.61,271.46c-7.14.02-12.24-6.36-12.09-12.71.16-6.55,5.57-12.18,12.43-12.18h12.5s.06-38.01.06-38.01c.01-6.64,6.05-11.71,12.12-11.83,6.37-.13,12.71,4.96,12.7,11.84l-.05,51.72c0,5.59-5.63,11.06-11.05,11.07l-26.62.09Z"/>
      <path d="M445.81,246.64l-13.08-.12c-6.63-.06-11.69-5.97-11.83-12.1s5-12.61,11.83-12.67l13.09-.11.1-13.08c.05-6.6,5.97-11.7,12.1-11.81s12.7,4.95,12.7,11.84v51.09c0,6.7-6.05,11.69-12.11,11.85-6.41.17-12.63-5.01-12.68-11.81l-.11-13.08Z"/>
      <path d="M633.64,620.08l-13.4.15-.1,13.1c-.05,6.61-5.97,11.68-12.11,11.82s-12.7-4.96-12.69-11.85l.07-51.66c0-6.66,6.71-11.43,12.59-11.28,6.22.16,12.08,5.2,12.13,11.81l.11,13.13h12.47c6.67,0,11.96,5.3,12.42,11.6s-4.36,13.11-11.48,13.19Z"/>
      <path d="M371.09,110c.02,7.14-6.37,12.24-12.71,12.08s-12.19-5.58-12.18-12.42l.02-12.49-13.78-.16c-5.47-.07-11.02-5.46-11.02-11.04l.02-27.42c0-6.61,6.59-11.42,12.59-11.26s12.06,5.2,12.11,11.81l.1,13.09,13.72.17c5.48.07,11.02,5.44,11.03,11.03l.08,26.6Z"/>
      <path d="M110.54,669.91l-51.4.05c-6.69,0-11.71-6.02-11.86-12.12s4.96-12.68,11.85-12.69l49.84-.09c6.97-.01,12.56,4.82,13.08,11.68.45,6.01-4.3,13.16-11.52,13.17Z"/>
      <path d="M160.39,520.45h-27.18c-5.51,0-11.03-5.52-11.04-11.04l-.07-26.87c-.02-6.62,5.99-11.69,12.11-11.82s12.63,4.99,12.68,11.81l.11,13.09,13.07.12c6.64.06,11.69,5.93,11.84,12.09s-4.61,12.62-11.51,12.62Z"/>
      <path d="M458.51,545.51c-7.17.04-12.52-5.64-12.7-12.22s4.98-12.6,11.83-12.66l13.09-.11.1-13.09c.05-6.61,5.98-11.69,12.1-11.81s12.71,4.99,12.69,11.81l-.06,26.88c-.01,5.48-5.54,11-11.04,11.04l-26,.16Z"/>
      <path d="M545.53,844.41l-.11,13.09c-.06,6.63-5.97,11.68-12.1,11.82s-12.7-5-12.69-11.82l.06-26.88c.01-5.48,5.54-11,11.04-11.04l25.62-.19c6.92-.05,12.55,4.95,13.05,11.67.49,6.51-4.74,13.17-11.8,13.23l-13.08.11Z"/>
      <path d="M309.84,869.16h-27.18c-5.51,0-11.03-5.52-11.04-11.04l-.07-26.87c-.02-6.62,5.99-11.69,12.11-11.82,6.4-.13,12.63,4.99,12.68,11.81l.11,13.09,13.07.12c6.64.06,11.69,5.93,11.84,12.09s-4.61,12.62-11.51,12.62Z"/>
      <path d="M483.41,171.9c-7.17.04-12.52-5.64-12.7-12.22s4.98-12.6,11.83-12.66l13.09-.11.1-13.09c.05-6.61,5.98-11.69,12.1-11.81s12.71,4.99,12.69,11.81l-.06,26.88c-.01,5.48-5.54,11-11.04,11.04l-26,.16Z"/>
      <path d="M384.56,470.63h-27.18c-5.51,0-11.03-5.52-11.04-11.04l-.07-26.87c-.02-6.62,5.99-11.69,12.11-11.82s12.63,5,12.68,11.81l.11,13.13h12.47c6.67,0,11.96,5.29,12.42,11.61s-4.36,13.18-11.49,13.18Z"/>
      <path d="M459.28,346.1h-27.18c-5.51,0-11.03-5.52-11.04-11.04l-.07-26.87c-.02-6.62,5.99-11.69,12.11-11.82s12.63,4.99,12.68,11.81l.11,13.09,13.07.12c6.64.06,11.69,5.93,11.84,12.09s-4.61,12.62-11.51,12.62Z"/>
      <path d="M819.43,408.89c.02,6.92-6,11.93-12.14,12.08s-12.61-5-12.67-11.81l-.11-13.09-13.08-.1c-6.63-.05-11.69-5.98-11.83-12.1s5-12.7,11.83-12.69l26.86.07c5.53.01,11.04,5.52,11.06,11.03l.09,26.61Z"/>
      <path d="M483.41,371.16c-7.17.04-12.52-5.64-12.7-12.22s4.99-12.6,11.82-12.66l13.09-.11.1-13.09c.05-6.61,5.98-11.69,12.1-11.81s12.71,4.99,12.69,11.81l-.06,26.88c-.01,5.48-5.54,11-11.04,11.04l-26,.16Z"/>
      <path d="M408.69,595.33c-7.17.04-12.52-5.64-12.7-12.22s4.98-12.6,11.83-12.66l13.09-.11.1-13.09c.05-6.61,5.98-11.69,12.1-11.81s12.71,4.99,12.69,11.81l-.06,26.88c-.01,5.48-5.54,11-11.04,11.04l-26,.16Z"/>
      <path d="M384.55,869.16l-26.54.06c-6.65.02-11.69-5.98-11.84-12.11s4.99-12.64,11.83-12.68l24.99-.13c6.91-.04,12.54,4.89,13.05,11.68.46,6.12-4.33,13.16-11.5,13.17Z"/>
      <path d="M545.45,682.87c0,6.93-6.02,11.94-12.14,12.09s-12.7-4.99-12.68-11.82l.08-26.8c.02-6.62,6.59-11.43,12.6-11.26s12.12,5.19,12.13,11.82l.02,25.98Z"/>
      <path d="M85.66,371.01l-26.54.06c-6.65.02-11.69-5.98-11.84-12.11s4.99-12.64,11.83-12.68l24.99-.13c6.91-.04,12.54,4.89,13.05,11.68.46,6.12-4.33,13.16-11.5,13.17Z"/>
      <circle cx="209.22" cy="358.67" r="12.47"/>
      <circle cx="209.22" cy="508.12" r="12.47"/>
      <circle cx="308.85" cy="508.12" r="12.47"/>
      <circle cx="433.39" cy="508.12" r="12.47"/>
      <circle cx="557.93" cy="483.21" r="12.47"/>
      <circle cx="408.48" cy="483.21" r="12.47"/>
      <circle cx="383.58" cy="533.02" r="12.47"/>
      <circle cx="209.22" cy="557.93" r="12.47"/>
      <circle cx="782.1" cy="333.76" r="12.47"/>
      <circle cx="333.76" cy="483.21" r="12.47"/>
      <circle cx="184.32" cy="483.21" r="12.47"/>
      <circle cx="283.95" cy="333.76" r="12.47"/>
      <circle cx="782.1" cy="582.84" r="12.47"/>
      <circle cx="533.02" cy="308.85" r="12.47"/>
      <circle cx="807.01" cy="607.75" r="12.47"/>
      <circle cx="757.19" cy="358.67" r="12.47"/>
      <circle cx="109.59" cy="383.58" r="12.47"/>
      <circle cx="383.58" cy="632.65" r="12.47"/>
      <circle cx="433.39" cy="632.65" r="12.47"/>
      <circle cx="782.1" cy="632.65" r="12.47"/>
      <circle cx="483.21" cy="283.95" r="12.47"/>
      <circle cx="358.67" cy="657.56" r="12.47"/>
      <circle cx="458.3" cy="657.56" r="12.47"/>
      <circle cx="408.48" cy="433.39" r="12.47"/>
      <circle cx="333.76" cy="682.47" r="12.47"/>
      <circle cx="582.84" cy="682.47" r="12.47"/>
      <circle cx="383.58" cy="283.95" r="12.47"/>
      <circle cx="508.11" cy="209.22" r="12.47"/>
      <circle cx="557.93" cy="159.41" r="12.47"/>
      <circle cx="458.3" cy="383.58" r="12.47"/>
      <circle cx="657.56" cy="109.59" r="12.47"/>
      <circle cx="483.21" cy="109.59" r="12.47"/>
      <circle cx="508.11" cy="782.1" r="12.47"/>
      <circle cx="259.04" cy="807.01" r="12.47"/>
      <circle cx="408.48" cy="807.01" r="12.47"/>
      <circle cx="657.56" cy="59.78" r="12.47"/>
      <circle cx="757.19" cy="408.49" r="12.47"/>
      <circle cx="433.39" cy="408.49" r="12.47"/>
      <circle cx="607.74" cy="831.91" r="12.47"/>
      <circle cx="607.74" cy="59.78" r="12.47"/>
      <circle cx="383.58" cy="408.49" r="12.47"/>
      <circle cx="283.95" cy="59.78" r="12.47"/>
      <circle cx="856.82" cy="856.82" r="12.47"/>
      <path class="cls-1" d="M744.74,670.01v74.72h-74.72v-74.72h74.72ZM719.85,707.38c0-6.89-5.58-12.47-12.47-12.47s-12.47,5.58-12.47,12.47,5.58,12.47,12.47,12.47,12.47-5.58,12.47-12.47Z"/>
      <path class="cls-1" d="M656.05,346.22h38.88s0,24.9,0,24.9h-74.72s0-49.81,0-49.81h24.91s-.01,13.69-.01,13.69c.73,5.74,4.91,10.23,10.95,11.22Z"/>
      <rect class="cls-1" x="196.77" y="620.2" width="24.91" height="24.91"/>
      <path class="cls-1" d="M196.77,72.23v124.54h-124.54v-124.54h124.54ZM171.86,97.14h-74.72v74.72h74.72v-74.72Z"/>
      <path class="cls-1" d="M844.37,72.23v124.54h-124.54v-124.54h124.54ZM819.46,97.14h-74.72v74.72h74.72v-74.72Z"/>
      <path class="cls-1" d="M196.77,719.83v124.54h-124.54v-124.54h124.54ZM171.86,744.74h-74.72v74.72h74.72v-74.72Z"/>
      <circle cx="707.37" cy="707.38" r="12.47"/>
      <rect x="97.14" y="97.14" width="74.72" height="74.72"/>
      <rect x="744.74" y="97.14" width="74.72" height="74.72"/>
      <rect x="97.14" y="744.74" width="74.72" height="74.72"/>
    </g>
  </g>
</svg>