<?xml version="1.0" encoding="UTF-8"?>
<svg xmlns="http://www.w3.org/2000/svg" viewBox="0 0 1417.32 1417.32">
  <defs>
    <style>
      .cls-1 {
        fill: #13161e;
      }

      .cls-2 {
        fill: #fff;
      }
    </style>
  </defs>
  <g id="Layer_2" data-name="Layer 2">
    <rect class="cls-1" width="1417.32" height="1417.32"/>
  </g>
  <g id="Layer_1" data-name="Layer 1">
    <g id="Layer_2-2" data-name="Layer 2-2">
      <g id="uuid-0b690972-0d06-4ff3-8dd2-9ea9129234dd">
        <g id="uuid-b8a5611d-2982-4319-ba60-bf22edfb8f79">
          <g id="Layer_1-2" data-name="Layer 1-2">
            <g id="uuid-b883b752-d546-4167-aee1-166794b51e18">
              <path class="cls-2" d="M1131.78,473.06c134.75,0,243.87,109.2,243.87,243.87s-109.2,243.87-243.87,243.87-243.87-109.2-243.87-243.87,109.2-243.87,243.87-243.87ZM1182.87,557.79c-3.74-1.83-7.47,0-8.39,3.74-.92.92-.92,1.83-.92,3.74v12.96l.15,1.6c.76,3.13,2.75,5.87,5.41,7.7,72.44,25.93,109.66,106.38,82.66,177.6-13.96,38.89-44.61,68.48-82.66,82.36-3.74,1.83-5.57,4.65-5.57,9.23v14.34c.38,2.97,2.59,5.49,5.57,6.02.92,0,2.82,0,3.74-.92,87.54-27.38,136.35-120.49,109.05-208.03,0-.38-.23-.69-.3-1.07-16.7-52.77-57.57-92.5-108.67-109.2h-.08v-.08ZM1084.42,556.87c-.92,0-2.82,0-3.74.92-87.54,27.38-136.35,120.49-109.05,208.03.08.38.23.69.31,1.07,16.7,51.86,56.66,91.59,108.67,108.29,3.74,1.83,7.47,0,8.39-3.74.92-.92.92-1.83.92-3.74v-12.96l-.15-1.22c-.61-2.59-3.05-5.49-5.41-7.09-72.44-25.93-109.66-106.38-82.66-177.6,13.96-38.89,44.61-68.48,82.66-82.36,3.74-1.83,5.57-4.65,5.57-9.23v-14.34c-.38-2.97-2.59-5.49-5.57-6.02h.08ZM1138.26,604.99h-13.96l-1.37.15c-3.05.61-5.26,3.2-6.1,7.32v21.28l-3.13.46c-26,4.65-42.32,22.57-42.32,44.84,0,30.5,18.53,42.55,57.57,47.2,26,4.65,34.39,10.22,34.39,25.01s-13.04,24.94-30.66,24.94c-24.17,0-32.49-10.14-35.31-24.02-.92-3.66-3.74-5.57-6.48-5.57h-17.01c-3.13.61-5.34,3.36-5.26,6.48v.92l.53,2.75c4.42,21.73,19.29,37.21,48.73,41.71v22.19l.15,1.37c.61,3.05,3.28,5.26,7.32,6.02h13.96l1.37-.15c3.05-.61,5.26-3.2,6.1-7.24v-22.19l3.13-.61c26.08-5.49,43.31-24.4,43.31-48.42,0-32.41-19.52-43.47-58.57-48.12-27.91-3.74-33.48-11.13-33.48-24.02s9.3-21.28,27.83-21.28c16.7,0,26,5.57,30.66,19.45.99,2.75,3.58,4.58,6.48,4.65h16.09c3.13-.61,5.41-3.36,5.34-6.48v-.92l-.53-2.67c-4.73-19.45-21.35-33.63-41.26-35.31v-22.19l-.15-1.37c-.61-3.05-3.28-5.26-7.32-6.1h0l-.08-.08Z"/>
              <path class="cls-2" d="M830.79,680.64l-367.1-211.92c-18.3-10.52-41.1,2.67-41.1,23.72v423.84c0,21.12,22.88,34.32,41.1,23.72l367.1-211.92c18.3-10.52,18.3-36.91,0-47.51h0v.08Z"/>
              <path class="cls-2" d="M912.99,431.43c-1.37-1.6-3.58-3.36-5.19-4.8-38.89-35.54-164.79-138.1-336.83-125.9-193.85,13.73-402.03,170.05-406.53,391.35-4.65,229.54,212.53,398.9,417.21,409.05,198.8,9.76,334.54-133.22,363.6-166.32,2.14-2.44,5.64-2.82,8.31-.99,11.9,8.16,25.62,16.62,41.26,24.71,19.98,10.37,38.97,17.84,55.74,23.41,4.04,1.37,5.64,6.33,3.2,9.84-48.65,67.64-114.16,123.92-191.03,163.65-79.54,41.18-171.27,64.59-268.88,64.59-152.44,0-290.54-57.19-390.44-149.77-99.9-92.5-161.74-220.38-161.74-361.54s61.69-269.11,161.67-361.61c99.97-92.5,237.92-149.77,390.44-149.77,84.11,0,163.8,17.39,235.1,48.58,67.49,29.44,127.5,71.22,176.69,122.16"/>
            </g>
            <path class="cls-2" d="M1045.91,462.84l-19.14-160.29c-.76-6.41-8.16-9.61-13.35-5.72l-188.2,140.85c-5.19,3.89-4.19,11.9,1.75,14.41l136.5,58.49c.92.38,1.98.23,2.75-.46,12.05-10.52,28.29-22.42,48.96-32.56,10.22-5.03,19.98-8.92,28.98-11.9,1.22-.38,1.98-1.6,1.83-2.82h-.08Z"/>
          </g>
        </g>
      </g>
    </g>
  </g>
</svg>