<?xml version="1.0" encoding="UTF-8"?>
<svg id="Layer_2" data-name="Layer 2" xmlns="http://www.w3.org/2000/svg" viewBox="0 0 535.25 135.25">
  <defs>
    <style>
      .cls-1 {
        fill: #848413;
      }

      .cls-2 {
        fill: #80800f;
      }

      .cls-3 {
        fill: #020202;
      }
    </style>
  </defs>
  <g id="Layer_1-2" data-name="Layer 1">
    <g>
      <path class="cls-3" d="M77,0c-.29.34,2.09.24,3.43.36,15.25,1.46,29.73,7.22,41.57,17.13l5.77-4.26c.54-.4,1.11-.46,1.63-.24.49.22.93.65,1.01,1.34l2.49,20.75c.09.51-.13,1.03-.64,1.2-3.83,1.29-7.22,3.26-10.38,6.03l-18.37-7.8c-.6-.25-.91-.75-1.01-1.18-.15-.68.1-1.25.66-1.68l5.96-4.58c-14.11-10.52-30.7-15.15-47.82-11.04-16.55,3.97-31.86,14.9-39.38,30.37-6.06,12.46-6.14,26.89-.26,39.42,7.55,16.09,23.4,27.52,40.54,31.44,11.72,2.68,23.68,1.3,34.53-3.82,8.31-3.92,15.62-9.43,21.77-16.2.57-.63,1.24-1.1,2.07-.53,3.93,2.7,8.16,4.75,12.67,6.28,1.04.35.95,1.6.38,2.36-13.01,17.69-33.03,28.02-54.86,29.67-.53.04-1.09-.27-1.27.21h-8.75c-30.23-.56-59.07-21.56-66.94-51.17-.84-3.15-1.74-6.61-1.3-9.82l-.51-3.52v-6.25l.51-3.52c-.4-4.21.89-8.79,2.18-12.85C11.65,20.09,39.74.45,69,0h8Z"/>
      <path d="M535.25,52v34.5c-.55.99-3.12.71-4.76.67-.66-.01-1.43-.45-1.43-1.23v-33.17c-.01-.88.58-1.49,1.43-1.47,1.95.05,4.19-.37,4.75.69Z"/>
      <path class="cls-2" d="M0,64.5v-1.75c.13-.63.46-1.26.51-1.77-.07,1.2.2,2.51-.51,3.52Z"/>
      <path class="cls-1" d="M.51,74.27c-.52-.34-.04-1.9-.51-1.77v-1.75c.5,1.06.5,2.34.51,3.52Z"/>
      <path d="M175.68,68.72c0,17.69-14.34,32.04-32.04,32.04s-32.04-14.34-32.04-32.04,14.34-32.04,32.04-32.04,32.04,14.34,32.04,32.04ZM137.69,85.91c-7.54-2.73-12.43-9.68-12.31-17.48s5.04-14.5,12.42-17.03c.37-1.24.49-2.48-.09-3.68-9.32,2.44-15.69,10.83-16,20.19s5.54,18.09,14.55,21.27c.47.17,1.33.54,1.58-.04.34-.78.47-2.39-.15-3.23ZM149.65,89.74c6.91-1.93,12.2-6.93,14.59-13.49,4.36-11.94-2.41-25.07-14.62-28.53-.68,1.28-.6,2.57-.09,3.81,7.54,2.7,12.67,9.79,12.33,17.9s-5.24,14.11-12.42,16.64c-.35,1.29-.57,2.59.2,3.66ZM141.89,79.45c.25,1.22-.26,2.45.26,3.47.47.52,1.66.2,2.33.27,1.72.17.81-2.73,1.13-3.84,2.4-.4,4.54-1.73,5.43-3.74.96-2.19.85-4.9-.76-6.62-2.41-2.57-7.08-1.74-9.6-3.22-1.19-.7-1.33-2.22-.92-3.33.45-1.2,1.71-1.57,2.95-1.75,2.31-.32,4.16.83,4.81,2.89,1,.44,2.53.4,3.38-.15-.17-2.99-2.52-5.08-5.38-5.45-.39-1.09.29-2.31-.3-3.33-.48-.83-2.55-.84-3.18-.21-.79.78-.02,3.11-.56,3.42-.24.13-4.3.61-5.37,3.98-.7,2.18-.39,4.65,1.35,6.13,3.49,2.96,11.47.81,10.24,6.07-.62,2.64-4.87,3.34-7.5,1.51-.87-.61-.74-1.9-1.45-2.53-.77-.68-2.39-.33-3.29-.04-.02,3.91,2.94,5.82,6.42,6.48Z"/>
      <path d="M104.43,70.65l-47.98,27.7c-1.39.8-2.82.89-4.25.08-1.07-.6-2.13-1.86-2.13-3.53v-55.59c0-1.55.83-2.78,1.81-3.42,1.19-.77,2.8-1.1,4.12-.34l48.12,27.74c1.42.82,2.25,1.93,2.36,3.38.11,1.52-.47,3.05-2.06,3.97Z"/>
      <path d="M382.79,73.64l-8.68.07-.07,12.05c0,.79-.55,1.42-1.32,1.42h-3.98c-.74,0-1.31-.62-1.31-1.44l.05-30.2.11-4.21,15.87.03c1.64,0,3.17.32,4.7.73,6.4,1.71,8.34,9.27,6.2,14.82-1.79,4.65-6.84,6.7-11.57,6.74ZM386.96,66.29c1.29-1.23,1.62-2.87,1.46-4.52-.09-2.38-1.75-4.27-4.2-4.28l-10.15-.04v10.08s8.67-.02,8.67-.02c1.48,0,2.94-.39,4.21-1.23Z"/>
      <path d="M300.79,73.63l-8.69.08-.04,12.04c0,.8-.54,1.42-1.35,1.42h-3.95c-.47,0-1.2-.35-1.2-.98v-34.87s16.31.05,16.31.05c2.11,0,4.06.53,5.97,1.27,4.8,2.45,6.29,8.45,4.88,13.35-.86,2.97-2.96,5.21-5.83,6.39-1.9.81-3.92,1.23-6.11,1.26ZM305.24,66.12c1.78-2.23,1.8-5.66-.27-7.61-1.31-1.23-3.29-1.04-4.95-1.06-2.72-.04-5.23-.26-7.93-.09v10.18s8.68-.03,8.68-.03c1.61,0,3.08-.39,4.48-1.39Z"/>
      <path d="M207.67,76.99l-12.92-.04-3.2,8.64c-.36.97-1.26,1.57-2.3,1.59-1.38.02-3.7.27-4.29-.56-.22-.31-.41-.89-.21-1.4l12.61-32.6c.34-.87,1-1.37,1.9-1.39,2.6-.05,4.68-.48,5.45,1.39l13.44,32.68c.26.64-.05,1.72-.68,1.81-1.41.19-2.8.08-4.18.08-1.27,0-1.96-.81-2.42-1.86-1.19-2.69-2.06-5.32-3.18-8.33ZM205.45,71.25l-4.45-11.66-4.29,11.68,8.74-.03Z"/>
      <path d="M315.16,78.18c1.24-7.51,10.4-8.05,16.69-8.28.03-1.03.15-2.78-.97-3.49-2.06-1.29-4.91-1.07-7.08-.24s-.91,3.49-3.34,3.5h-2.94c-1.21.01-1.8-.93-1.65-2.02,1.06-7.86,10.75-8.52,16.46-6.98,4.16,1.12,6.07,4.81,6.08,8.89l.02,16.32c0,1.77-3.14,1.35-5.15,1.27-.67-.03-1-.6-1.37-1.27-3.57,1.88-7.62,2.45-11.42,1.17s-5.99-4.89-5.33-8.88ZM331.9,79.57c.08-1.55.07-2.81,0-4.22-2.77-.1-7.16-.13-9.3,1.73-.96.84-1.14,2.12-.81,3.23,1.02,3.38,7.98,1.96,10.11-.74Z"/>
      <path d="M281.52,79.06c-2.02,7.52-9.91,10.4-16.74,7.87-7.28-2.71-8.72-11.49-6.96-18.13s8.12-9.76,14.82-8.42c8.72,1.74,10.88,11.23,8.87,18.69ZM275.04,78.08c.8-2.81.75-5.86-.06-8.52s-2.91-4.03-5.36-4.03-4.54,1.56-5.31,4.08c-.86,2.78-.84,5.81,0,8.6.75,2.53,2.88,4.08,5.34,4.09s4.64-1.57,5.4-4.21Z"/>
      <path d="M519.56,86.5c-3.92,1.85-8.4,1.75-12.1-.23-6.22-3.31-7.26-11.7-5.47-17.8,2.21-7.53,10.34-10.11,16.97-7.42s8.25,11.02,6.76,17.46c-.79,3.42-2.85,6.41-6.17,7.98ZM519.08,78.18c.87-2.94.84-6.08-.13-8.87-.84-2.44-2.97-3.81-5.33-3.77s-4.43,1.48-5.2,3.95c-.89,2.81-.88,5.98-.01,8.8.78,2.53,2.97,4.08,5.45,4.02s4.45-1.53,5.22-4.12Z"/>
      <path d="M475.5,79.77c-2.51,7.54-10.91,9.73-17.32,6.79-6.42-2.94-7.59-10.67-6.36-16.92,1.17-5.89,6-9.58,11.93-9.62s10.52,3.2,11.98,8.76c.95,3.6.97,7.39-.23,10.98ZM469.18,78.29c.9-2.87.86-5.96.02-8.74-.8-2.61-3.01-4.1-5.56-4.02-6.18.21-6.43,8.7-5.05,12.84.82,2.45,2.9,3.93,5.3,3.93s4.5-1.45,5.3-4.01Z"/>
      <path d="M436.22,79.47c-2.39,7.88-11.21,10.16-17.7,6.95-3.16-1.56-5.21-4.52-5.99-7.9-1.45-6.23-.18-14.26,6.22-17.22,3.65-1.69,7.87-1.7,11.52,0,6.69,3.12,7.87,11.88,5.96,18.17ZM429.77,78.4c.96-2.92.91-6.08.02-8.91-.8-2.55-2.92-4-5.4-3.96-2.34.04-4.41,1.46-5.18,3.91-.91,2.89-.94,6.14.04,9.01.83,2.45,2.95,3.89,5.38,3.85,2.28-.04,4.34-1.43,5.15-3.9Z"/>
      <path d="M357.68,80.29c-1.67,4.43-3.13,8.59-5.23,12.6-3.05,5.84-10.46,4.62-11.05,2.75-.35-1.11-.65-3.85.38-4.71,1.24-1.04,2.92.71,4.28-.14,1.7-1.06,2.74-2.82,3.18-4.77l-8.99-23.8c-.93-2.45,4.08-1.47,5.2-1.64.84.06,1.29.47,1.54,1.2l5.37,15.75,5.39-15.79c.21-.62.66-1.07,1.33-1.12,1.37-.1,6.27-.66,5.41,1.61l-6.82,18.06Z"/>
      <path d="M236.26,60.58c2.42-.08,4.93-.47,4.93,1.44v23.96c0,.71-.55,1.2-1.23,1.19-3.01-.04-4.59.65-5.3-1.62-3.57,2.88-8.92,3.13-12.51.1-2.18-1.84-2.89-4.62-2.9-7.42l-.05-16.24c0-.72.53-1.31,1.2-1.37,1.84-.15,5.27-.57,5.28,1.39l.06,16.97c0,1.98,1.64,3.27,3.53,3.1,2.27-.2,4.32-1.4,5.53-3.3l.04-17.19c0-.63.93-.99,1.42-1Z"/>
      <path d="M491.1,82.19c4.42-.64,2.47-4.38,4.64-4.38h4.02c.69,0,1.29.43,1.22,1.22-.3,3.36-2.38,6.31-5.49,7.65-6.42,2.78-14.23.36-16.8-6.38-1.4-3.66-1.37-7.51-.46-11.31,1.05-4.42,4.4-7.72,8.87-8.64,3.25-.67,6.61-.34,9.45,1.36,4.18,2.51,5.74,8.24,3.21,8.31-1.44.04-2.8.05-4.25,0-1.71-.06-.09-3.77-4.34-4.42-2.91-.44-5.51,1.05-6.37,3.94s-.87,6,.04,8.81,3.32,4.25,6.28,3.82Z"/>
      <path d="M253.02,81.62c.67.98,2.63-.11,3.57.65s.81,4.05.05,4.65c-1.91.89-4.31.78-6.34.27-3.97-1.01-4.1-4.85-4.12-8.19l-.06-12.89c-.89-.01-2.2.31-2.63-.61-.52-1.13-.51-3.1-.02-4.25.37-.86,1.77-.6,2.58-.68.56-1.19-.72-5.94,1.22-5.96,1.54-.01,3.06-.17,4.56.07.7.11.77,1.17.77,1.72v4.1c1.1.31,3.89-.55,3.93,1.5.02.94.02,1.84,0,2.78-.05,1.99-2.54,1.05-3.99,1.36l.07,14.14c0,.5.18,1.04.39,1.35Z"/>
      <path d="M447.26,82.41c.63.92,2.64-.13,3.55.63.67.57.85,3.99.07,4.65-2.23.9-5,.88-7.3-.09-1.93-.81-3.03-2.76-3.05-4.87l-.17-15.81c-.98,0-2.47.21-2.74-.77-.32-1.18-.36-2.86.02-4.04.31-.97,1.95-.75,2.71-.76.55-1.83-.9-6.04,1.41-6.03s4.99-.49,5.02,1.18l.08,4.89c1.38.32,3.79-.63,3.92,1.35.06.94.06,1.83.01,2.78-.1,2.04-2.81,1.21-3.97,1.51l.03,14.13c0,.47.24.99.42,1.26Z"/>
      <path d="M404.1,86.43c-.06.49-.91.74-1.33.75l-3.31.06c-.47,0-1.62-.35-1.62-1.02l-.04-24.2c0-1.9,3.02-1.48,4.6-1.43,1.04.04,1.64.74,1.95,1.68,1.89-1.67,4.08-2.58,6.43-2.1,2.09.43,1.89,2.13,1.78,4.84-.11,2.56-2.93.55-6.14,2.1-1.52.74-2.44,2.14-2.23,3.9.2,1.59,0,3.13,0,4.74.01,3.61.32,7.1-.1,10.67Z"/>
    </g>
  </g>
</svg>