<svg xmlns="http://www.w3.org/2000/svg" viewBox="0 0 80 80" width="80" height="80" fill="#e91315">
  <path d="M47.78 18.87H33.4c-.53 0-.97.45-.97.97v51.89c0 2.39-.07 4.8 0 7.19v.1c0 .53.45.97.97.97h18.88c.53 0 .97-.45.97-.97V60.14l-.97.97h18.88c.53 0 .97-.45.97-.97V44.65c0-.79.01-1.58-.02-2.37-.1-2.4-.54-4.8-1.34-7.07-1.55-4.4-4.34-8.3-8.02-11.17-3.79-2.94-8.35-4.71-13.14-5.08-.61-.05-1.22-.07-1.84-.07z"/>
  <path d="M52.28 20.28c10.33 2.1 10.73 13.35 7.42 18.38-2.91 4.42-6.73 6.43-11.25 5.22-2.59-.69-5.49-2.84-7.37.11-1.98 3.1 2.04 4.81 1.54 8.53-.5 3.71-4.33 4.71-6.73 2.31-2.1-2.1-2.49-8.92-2.49-8.92V19.85l18.88.43zm-3.03 11.45c0-2.83-2.29-5.12-5.12-5.12s-5.12 2.29-5.12 5.12 2.29 5.12 5.12 5.12 5.12-2.29 5.12-5.12z"/>
  <circle cx="44.12" cy="31.73" r="2.04"/>
  <path d="M33.4 16.66h27.6c5.52 0 8.24-3.72 8.74-5.83.5-2.11-2.03-7.44-8.2-.8 0 0 3.68-7.13-1.25-8.74-4.92-1.61-10.59 3.32-12.83 8.04 0 0 .27-5.83-4.8-4.42-5.07 1.41-9.27 11.75-9.27 11.75z"/>
</svg>
