<?xml version="1.0" encoding="UTF-8"?>
<svg id="Layer_2" xmlns="http://www.w3.org/2000/svg" version="1.1" viewBox="0 0 535.2 135.2">
  <!-- Generator: Adobe Illustrator 30.2.1, SVG Export Plug-In . SVG Version: 2.1.1 Build 1)  -->
  <defs>
    <style>
      .st0 {
        fill: #101420;
      }
    </style>
  </defs>
  <g id="Layer_1-2">
    <g>
      <path class="st0" d="M.5,60.9c0-4.2.9-8.8,2.2-12.8C11.6,20.1,39.7.4,69,0h8c-.3.3,2.1.2,3.4.4,15.2,1.5,29.7,7.2,41.6,17.1l5.8-4.3c.5-.4,1.1-.5,1.6-.2.5.2.9.7,1,1.3l2.5,20.8c0,.5-.1,1-.6,1.2-3.8,1.3-7.2,3.3-10.4,6l-18.4-7.8c-.6-.2-.9-.8-1-1.2-.2-.7,0-1.2.7-1.7l6-4.6c-14.1-10.5-30.7-15.2-47.8-11-16.5,4-31.9,14.9-39.4,30.4-6.1,12.5-6.1,26.9-.3,39.4,7.6,16.1,23.4,27.5,40.5,31.4,11.7,2.7,23.7,1.3,34.5-3.8,8.3-3.9,15.6-9.4,21.8-16.2.6-.6,1.2-1.1,2.1-.5,3.9,2.7,8.2,4.8,12.7,6.3,1,.3.9,1.6.4,2.4-13,17.7-33,28-54.9,29.7-.5,0-1.1-.3-1.3.2h-8.8c-30.2-.6-59.1-21.6-66.9-51.2-.8-3.2-1.3-6.4-1.3-9.8-.1-2.1-.2-4.3-.2-6.6,0-2.3,0-4.5.2-6.7Z"/>
      <path class="st0" d="M535.2,52v34.5c-.5,1-3.1.7-4.8.7-.7,0-1.4-.4-1.4-1.2v-33.2c0-.9.6-1.5,1.4-1.5,2,0,4.2-.4,4.8.7h0Z"/>
      <path class="st0" d="M.5,70.8c.5,1.1,0,2.3,0,3.5"/>
      <path class="st0" d="M175.7,68.7c0,17.7-14.3,32-32,32s-32-14.3-32-32,14.3-32,32-32,32,14.3,32,32ZM137.7,85.9c-7.5-2.7-12.4-9.7-12.3-17.5s5-14.5,12.4-17c.4-1.2.5-2.5,0-3.7-9.3,2.4-15.7,10.8-16,20.2s5.5,18.1,14.6,21.3c.5.2,1.3.5,1.6,0,.3-.8.5-2.4-.1-3.2h0ZM149.6,89.7c6.9-1.9,12.2-6.9,14.6-13.5,4.4-11.9-2.4-25.1-14.6-28.5-.7,1.3-.6,2.6,0,3.8,7.5,2.7,12.7,9.8,12.3,17.9-.3,8.1-5.2,14.1-12.4,16.6-.4,1.3-.6,2.6.2,3.7h0ZM141.9,79.4c.2,1.2-.3,2.4.3,3.5.5.5,1.7.2,2.3.3,1.7.2.8-2.7,1.1-3.8,2.4-.4,4.5-1.7,5.4-3.7,1-2.2.9-4.9-.8-6.6-2.4-2.6-7.1-1.7-9.6-3.2-1.2-.7-1.3-2.2-.9-3.3.4-1.2,1.7-1.6,2.9-1.8,2.3-.3,4.2.8,4.8,2.9,1,.4,2.5.4,3.4-.2-.2-3-2.5-5.1-5.4-5.5-.4-1.1.3-2.3-.3-3.3-.5-.8-2.6-.8-3.2-.2-.8.8,0,3.1-.6,3.4-.2.1-4.3.6-5.4,4-.7,2.2-.4,4.6,1.4,6.1,3.5,3,11.5.8,10.2,6.1-.6,2.6-4.9,3.3-7.5,1.5-.9-.6-.7-1.9-1.4-2.5-.8-.7-2.4-.3-3.3,0,0,3.9,2.9,5.8,6.4,6.5h0Z"/>
      <path class="st0" d="M104.4,70.6l-48,27.7c-1.4.8-2.8.9-4.2,0-1.1-.6-2.1-1.9-2.1-3.5v-55.6c0-1.5.8-2.8,1.8-3.4,1.2-.8,2.8-1.1,4.1-.3l48.1,27.7c1.4.8,2.2,1.9,2.4,3.4.1,1.5-.5,3.1-2.1,4h0Z"/>
      <path class="st0" d="M382.8,73.6h-8.7c0,0,0,12.1,0,12.1,0,.8-.5,1.4-1.3,1.4h-4c-.7,0-1.3-.6-1.3-1.4v-30.2s.2-4.2.2-4.2h15.9c1.6,0,3.2.3,4.7.8,6.4,1.7,8.3,9.3,6.2,14.8-1.8,4.7-6.8,6.7-11.6,6.7h0ZM387,66.3c1.3-1.2,1.6-2.9,1.5-4.5,0-2.4-1.8-4.3-4.2-4.3h-10.1s0,10,0,10h8.7c1.5,0,2.9-.4,4.2-1.2h0Z"/>
      <path class="st0" d="M300.8,73.6h-8.7c0,0,0,12.1,0,12.1,0,.8-.5,1.4-1.4,1.4h-4c-.5,0-1.2-.3-1.2-1v-34.9h16.3c2.1,0,4.1.6,6,1.3,4.8,2.5,6.3,8.5,4.9,13.4-.9,3-3,5.2-5.8,6.4-1.9.8-3.9,1.2-6.1,1.3h0ZM305.2,66.1c1.8-2.2,1.8-5.7-.3-7.6-1.3-1.2-3.3-1-5-1.1-2.7,0-5.2-.3-7.9,0v10.2h8.7c1.6,0,3.1-.4,4.5-1.4h0Z"/>
      <path class="st0" d="M207.7,77h-12.9s-3.2,8.6-3.2,8.6c-.4,1-1.3,1.6-2.3,1.6-1.4,0-3.7.3-4.3-.6-.2-.3-.4-.9-.2-1.4l12.6-32.6c.3-.9,1-1.4,1.9-1.4,2.6,0,4.7-.5,5.4,1.4l13.4,32.7c.3.6,0,1.7-.7,1.8-1.4.2-2.8,0-4.2,0s-2-.8-2.4-1.9c-1.2-2.7-2.1-5.3-3.2-8.3h0ZM205.4,71.2l-4.4-11.7-4.3,11.7h8.7s0,0,0,0Z"/>
      <path class="st0" d="M315.2,78.2c1.2-7.5,10.4-8.1,16.7-8.3,0-1,.1-2.8-1-3.5-2.1-1.3-4.9-1.1-7.1-.2s-.9,3.5-3.3,3.5h-2.9c-1.2,0-1.8-.9-1.6-2,1.1-7.9,10.8-8.5,16.5-7,4.2,1.1,6.1,4.8,6.1,8.9v16.3c0,1.8-3.1,1.3-5.1,1.3-.7,0-1-.6-1.4-1.3-3.6,1.9-7.6,2.4-11.4,1.2s-6-4.9-5.3-8.9h0ZM331.9,79.6c0-1.6,0-2.8,0-4.2-2.8,0-7.2-.1-9.3,1.7-1,.8-1.1,2.1-.8,3.2,1,3.4,8,2,10.1-.7Z"/>
      <path class="st0" d="M281.5,79.1c-2,7.5-9.9,10.4-16.7,7.9-7.3-2.7-8.7-11.5-7-18.1s8.1-9.8,14.8-8.4c8.7,1.7,10.9,11.2,8.9,18.7h0ZM275,78.1c.8-2.8.8-5.9,0-8.5s-2.9-4-5.4-4-4.5,1.6-5.3,4.1c-.9,2.8-.8,5.8,0,8.6.8,2.5,2.9,4.1,5.3,4.1s4.6-1.6,5.4-4.2h0Z"/>
      <path class="st0" d="M519.6,86.5c-3.9,1.8-8.4,1.8-12.1-.2-6.2-3.3-7.3-11.7-5.5-17.8,2.2-7.5,10.3-10.1,17-7.4s8.2,11,6.8,17.5c-.8,3.4-2.8,6.4-6.2,8h0ZM519.1,78.2c.9-2.9.8-6.1-.1-8.9-.8-2.4-3-3.8-5.3-3.8s-4.4,1.5-5.2,3.9c-.9,2.8-.9,6,0,8.8.8,2.5,3,4.1,5.5,4,2.5,0,4.5-1.5,5.2-4.1h0Z"/>
      <path class="st0" d="M475.5,79.8c-2.5,7.5-10.9,9.7-17.3,6.8-6.4-2.9-7.6-10.7-6.4-16.9,1.2-5.9,6-9.6,11.9-9.6s10.5,3.2,12,8.8c1,3.6,1,7.4-.2,11h0ZM469.2,78.3c.9-2.9.9-6,0-8.7-.8-2.6-3-4.1-5.6-4-6.2.2-6.4,8.7-5,12.8.8,2.4,2.9,3.9,5.3,3.9s4.5-1.4,5.3-4h0Z"/>
      <path class="st0" d="M436.2,79.5c-2.4,7.9-11.2,10.2-17.7,6.9-3.2-1.6-5.2-4.5-6-7.9-1.5-6.2-.2-14.3,6.2-17.2,3.6-1.7,7.9-1.7,11.5,0,6.7,3.1,7.9,11.9,6,18.2h0ZM429.8,78.4c1-2.9.9-6.1,0-8.9-.8-2.6-2.9-4-5.4-4-2.3,0-4.4,1.5-5.2,3.9-.9,2.9-.9,6.1,0,9,.8,2.4,3,3.9,5.4,3.8,2.3,0,4.3-1.4,5.1-3.9h0Z"/>
      <path class="st0" d="M357.7,80.3c-1.7,4.4-3.1,8.6-5.2,12.6-3,5.8-10.5,4.6-11,2.8-.4-1.1-.6-3.8.4-4.7,1.2-1,2.9.7,4.3-.1,1.7-1.1,2.7-2.8,3.2-4.8l-9-23.8c-.9-2.5,4.1-1.5,5.2-1.6.8,0,1.3.5,1.5,1.2l5.4,15.8,5.4-15.8c.2-.6.7-1.1,1.3-1.1,1.4,0,6.3-.7,5.4,1.6l-6.8,18.1h0Z"/>
      <path class="st0" d="M236.3,60.6c2.4,0,4.9-.5,4.9,1.4v24c0,.7-.6,1.2-1.2,1.2-3,0-4.6.7-5.3-1.6-3.6,2.9-8.9,3.1-12.5,0-2.2-1.8-2.9-4.6-2.9-7.4v-16.2c0-.7.5-1.3,1.1-1.4,1.8-.2,5.3-.6,5.3,1.4v17c0,2,1.7,3.3,3.6,3.1,2.3-.2,4.3-1.4,5.5-3.3v-17.2c0-.6,1-1,1.5-1h0Z"/>
      <path class="st0" d="M491.1,82.2c4.4-.6,2.5-4.4,4.6-4.4h4c.7,0,1.3.4,1.2,1.2-.3,3.4-2.4,6.3-5.5,7.7-6.4,2.8-14.2.4-16.8-6.4-1.4-3.7-1.4-7.5-.5-11.3,1-4.4,4.4-7.7,8.9-8.6,3.2-.7,6.6-.3,9.5,1.4,4.2,2.5,5.7,8.2,3.2,8.3-1.4,0-2.8,0-4.2,0-1.7,0,0-3.8-4.3-4.4-2.9-.4-5.5,1.1-6.4,3.9s-.9,6,0,8.8,3.3,4.2,6.3,3.8h0Z"/>
      <path class="st0" d="M253,81.6c.7,1,2.6-.1,3.6.7.9.8.8,4.1,0,4.7-1.9.9-4.3.8-6.3.3-4-1-4.1-4.8-4.1-8.2v-12.9c-.9,0-2.3.3-2.7-.6-.5-1.1-.5-3.1,0-4.2.4-.9,1.8-.6,2.6-.7.6-1.2-.7-5.9,1.2-6,1.5,0,3.1-.2,4.6,0,.7.1.8,1.2.8,1.7v4.1c1.1.3,3.9-.5,3.9,1.5,0,.9,0,1.8,0,2.8,0,2-2.5,1.1-4,1.4v14.1c0,.5.2,1,.5,1.3h0Z"/>
      <path class="st0" d="M447.3,82.4c.6.9,2.6-.1,3.5.6.7.6.9,4,0,4.7-2.2.9-5,.9-7.3,0-1.9-.8-3-2.8-3-4.9l-.2-15.8c-1,0-2.5.2-2.7-.8-.3-1.2-.4-2.9,0-4,.3-1,2-.8,2.7-.8.5-1.8-.9-6,1.4-6s5-.5,5,1.2v4.9c1.5.3,3.9-.6,4,1.3,0,.9,0,1.8,0,2.8-.1,2-2.8,1.2-4,1.5v14.1c0,.5.3,1,.5,1.3h0Z"/>
      <path class="st0" d="M404.1,86.4c0,.5-.9.7-1.3.8h-3.3c-.5,0-1.6-.3-1.6-1v-24.2c0-1.9,3-1.5,4.6-1.4,1,0,1.6.7,2,1.7,1.9-1.7,4.1-2.6,6.4-2.1,2.1.4,1.9,2.1,1.8,4.8-.1,2.6-2.9.6-6.1,2.1-1.5.7-2.4,2.1-2.2,3.9.2,1.6,0,3.1,0,4.7,0,3.6.3,7.1-.1,10.7h0Z"/>
    </g>
  </g>
</svg>