<?xml version="1.0" encoding="UTF-8"?>
<svg id="Layer_2" data-name="Layer 2" xmlns="http://www.w3.org/2000/svg" viewBox="0 0 1417.32 1417.32">
  <defs>
    <style>
      .cls-1 {
        fill: none;
      }

      .cls-2, .cls-3 {
        fill: #010101;
      }

      .cls-4 {
        fill: #030303;
      }

      .cls-4, .cls-3 {
        stroke: #010101;
        stroke-miterlimit: 10;
      }
    </style>
  </defs>
  <g id="Layer_1-2" data-name="Layer 1">
    <g id="Layer_2-2" data-name="Layer 2-2">
      <g id="uuid-0b690972-0d06-4ff3-8dd2-9ea9129234dd">
        <g id="uuid-b8a5611d-2982-4319-ba60-bf22edfb8f79">
          <g id="uuid-caf3ee22-432d-4921-b67e-00a6e0cf57dd" data-name="Layer 1-2">
            <g id="uuid-b883b752-d546-4167-aee1-166794b51e18">
              <path class="cls-2" d="M1125.5,476.56c132.75,0,240.26,107.58,240.26,240.26s-107.58,240.26-240.26,240.26-240.26-107.58-240.26-240.26,107.58-240.26,240.26-240.26ZM1175.84,560.02c-3.68-1.8-7.36,0-8.26,3.68-.9.9-.9,1.8-.9,3.68v12.77l.15,1.58c.75,3.08,2.7,5.78,5.33,7.59,71.37,25.54,108.03,104.8,81.44,174.97-13.75,38.31-43.95,67.46-81.44,81.14-3.68,1.8-5.48,4.58-5.48,9.09v14.12c.38,2.93,2.55,5.41,5.48,5.94.9,0,2.78,0,3.68-.9,86.25-26.97,134.33-118.7,107.43-204.95,0-.38-.23-.68-.3-1.05-16.45-51.99-56.72-91.13-107.06-107.58h-.08v-.08ZM1078.85,559.12c-.9,0-2.78,0-3.68.9-86.25,26.97-134.33,118.7-107.43,204.95.08.38.23.68.3,1.05,16.45,51.09,55.82,90.23,107.06,106.68,3.68,1.8,7.36,0,8.26-3.68.9-.9.9-1.8.9-3.68v-12.77l-.15-1.2c-.6-2.55-3.01-5.41-5.33-6.99-71.37-25.54-108.03-104.8-81.44-174.97,13.75-38.31,43.95-67.46,81.44-81.14,3.68-1.8,5.48-4.58,5.48-9.09v-14.12c-.38-2.93-2.55-5.41-5.48-5.94h.08ZM1131.89,606.53h-13.75l-1.35.15c-3.01.6-5.18,3.16-6.01,7.21v20.96l-3.08.45c-25.62,4.58-41.7,22.24-41.7,44.17,0,30.05,18.26,41.92,56.72,46.5,25.62,4.58,33.88,10.07,33.88,24.64s-12.85,24.57-30.2,24.57c-23.82,0-32-9.99-34.78-23.67-.9-3.61-3.68-5.48-6.39-5.48h-16.75c-3.08.6-5.26,3.31-5.18,6.39v.9l.53,2.7c4.36,21.41,19.01,36.66,48.01,41.09v21.86l.15,1.35c.6,3.01,3.23,5.18,7.21,5.94h13.75l1.35-.15c3.01-.6,5.18-3.16,6.01-7.14v-21.86l3.08-.6c25.69-5.41,42.67-24.04,42.67-47.71,0-31.93-19.23-42.82-57.7-47.41-27.5-3.68-32.98-10.97-32.98-23.67s9.17-20.96,27.42-20.96c16.45,0,25.62,5.48,30.2,19.16.98,2.7,3.53,4.51,6.39,4.58h15.85c3.08-.6,5.33-3.31,5.26-6.39v-.9l-.53-2.63c-4.66-19.16-21.04-33.13-40.64-34.78v-21.86l-.15-1.35c-.6-3.01-3.23-5.18-7.21-6.01h0l-.07-.08Z"/>
              <path class="cls-3" d="M828.98,681.05l-361.66-208.78c-18.03-10.37-40.49,2.63-40.49,23.36v417.56c0,20.81,22.54,33.81,40.49,23.36l361.66-208.78c18.03-10.37,18.03-36.36,0-46.8h0v.08Z"/>
              <path class="cls-4" d="M909.96,435.54c-1.35-1.58-3.53-3.31-5.11-4.73-38.31-35.01-162.35-136.06-331.84-124.03-190.97,13.52-396.07,167.53-400.5,385.55-4.58,226.13,209.38,392.99,411.02,402.98,195.86,9.62,329.58-131.25,358.21-163.85,2.1-2.4,5.56-2.78,8.19-.98,11.72,8.04,25.24,16.38,40.64,24.34,19.68,10.22,38.39,17.58,54.92,23.06,3.98,1.35,5.56,6.24,3.16,9.69-47.93,66.64-112.47,122.08-188.19,161.22-78.36,40.57-168.74,63.63-264.9,63.63-150.18,0-286.23-56.35-384.65-147.55-98.42-91.13-159.34-217.12-159.34-356.18s60.78-265.12,159.27-356.25c98.49-91.13,234.4-147.55,384.65-147.55,82.87,0,161.37,17.13,231.62,47.86,66.49,29,125.61,70.17,174.07,120.35"/>
            </g>
            <path class="cls-3" d="M1040.91,466.49l-18.86-157.92c-.75-6.31-8.04-9.47-13.15-5.63l-185.41,138.76c-5.11,3.83-4.13,11.72,1.73,14.2l134.48,57.62c.9.38,1.95.23,2.7-.45,11.87-10.37,27.87-22.09,48.23-32.08,10.07-4.96,19.68-8.79,28.55-11.72,1.2-.38,1.95-1.58,1.8-2.78h-.08Z"/>
          </g>
        </g>
      </g>
    </g>
    <rect class="cls-1" width="1417.32" height="1417.32"/>
  </g>
</svg>